<svg xmlns:inkscape="http://www.inkscape.org/namespaces/inkscape" xmlns:sodipodi="http://sodipodi.sourceforge.net/DTD/sodipodi-0.dtd" xmlns:xlink="http://www.w3.org/1999/xlink" xmlns="http://www.w3.org/2000/svg" xmlns:svg="http://www.w3.org/2000/svg" width="700" height="381.30191" id="svg1159" sodipodi:docname="google_ads-ar21.svg" inkscape:version="1.1.1 (c3084ef, 2021-09-22)"><style id="style1135"><![CDATA[.F{clip-path:url(#A)}]]></style><defs id="defs1141"><clipPath id="A"><use xlink:href="#B" id="use1137" x="0" y="0" width="100%" height="100%"></use></clipPath><path id="B" d="M 0,0 H 250.9 V 312.8 H 0 Z"></path></defs><g transform="matrix(0.176308,0,0,0.176308,-42.751305,-3.5837851)" class="F" clip-path="url(#A)" id="g1153"></g><path d="M 20.7,260.4 C 9.4,260.4 0,269.5 0,280.7 c 0,11.2 9.4,20.2 20.7,20.2 6.1,0 10.6,-2 14.2,-5.7 3.7,-3.7 4.8,-8.8 4.8,-12.9 0,-1.3 -0.1,-2.5 -0.3,-3.5 H 20.7 v 5.5 H 34 c -0.4,3.1 -1.4,5.4 -3,7 -1.9,1.9 -5,4.1 -10.3,4.1 -8.2,0 -14.6,-6.6 -14.6,-14.7 0,-8.1 6.4,-14.7 14.6,-14.7 4.4,0 7.7,1.7 10,4 l 3.9,-3.9 c -3.3,-3.2 -7.7,-5.7 -13.9,-5.7 z m 33.9,14.5 c -7.1,0 -13,5.5 -13,13.2 0,7.6 5.8,13.2 13,13.2 7.2,0 13,-5.6 13,-13.2 0,-7.6 -5.9,-13.2 -13,-13.2 m 0,21.2 c -3.9,0 -7.3,-3.3 -7.3,-8 0,-4.7 3.4,-8 7.3,-8 3.9,0 7.3,3.2 7.3,8 0,4.7 -3.4,8 -7.3,8 m 28.2,-21.2 c -7.2,0 -13,5.5 -13,13.2 0,7.6 5.8,13.2 13,13.2 7.1,0 13,-5.6 13,-13.2 0,-7.6 -5.8,-13.2 -13,-13.2 m 0,21.2 c -3.9,0 -7.3,-3.3 -7.3,-8 0,-4.7 3.4,-8 7.3,-8 3.9,0 7.3,3.2 7.3,8 0,4.7 -3.3,8 -7.3,8 m 28.1,-21.2 c -6.5,0 -12.4,5.7 -12.4,13.1 0,7.3 5.9,13 12.4,13 3.1,0 5.5,-1.4 6.8,-3 h 0.2 v 1.9 c 0,5 -2.6,7.7 -6.9,7.7 -3.5,0 -5.6,-2.5 -6.5,-4.6 l -5,2.1 c 1.4,3.5 5.2,7.7 11.5,7.7 6.7,0 12.3,-4 12.3,-13.6 v -23.4 h -5.4 v 2.1 h -0.2 c -1.3,-1.6 -3.7,-3 -6.8,-3 m 0.5,21 c -3.9,0 -7.2,-3.3 -7.2,-7.9 0,-4.6 3.3,-8 7.2,-8 3.9,0 6.9,3.4 6.9,8 0,4.6 -3,7.9 -6.9,7.9 M 127.5,262 h 5.7 v 38.6 h -5.7 z m 21,12.9 c -6.8,0 -12.5,5.3 -12.5,13.2 0,7.4 5.6,13.2 13.1,13.2 6.1,0 9.6,-3.7 11,-5.8 l -4.5,-3 c -1.5,2.2 -3.6,3.6 -6.5,3.6 -3,0 -5.1,-1.3 -6.4,-4 l 17.7,-7.3 -0.6,-1.5 c -1.1,-2.9 -4.5,-8.4 -11.3,-8.4 m -6.8,12.8 c -0.2,-5.1 4,-7.7 6.9,-7.7 2.3,0 4.3,1.1 4.9,2.8 z" transform="matrix(4.3640898,0,0,4.3640898,0,-1136.409)" fill="#757575" class="F" clip-path="url(#A)" id="path1155" style="fill:#0e0e10;fill-opacity:1"></path><path d="m 170.4,300 13.2,-35.1 h 5.1 l 13.2,35.1 h -5 l -3.4,-9.5 h -14.7 l -3.4,9.5 z m 9.9,-13.7 H 192 l -5.7,-15.8 h -0.2 z m 26.2,10.8 c -2.2,-2.5 -3.3,-5.5 -3.3,-9.1 0,-3.5 1.1,-6.5 3.3,-9.1 2.3,-2.5 4.9,-3.7 8.1,-3.7 1.8,0 3.4,0.4 4.8,1.1 1.5,0.8 2.6,1.7 3.4,3 h 0.2 l -0.2,-3.3 v -11.1 h 4.5 V 300 H 223 v -3.3 h -0.2 c -0.8,1.2 -1.9,2.2 -3.4,3 -1.5,0.8 -3.1,1.1 -4.8,1.1 -3.2,0 -5.9,-1.2 -8.1,-3.7 m 14.2,-2.8 c 1.5,-1.6 2.2,-3.7 2.2,-6.3 0,-2.5 -0.7,-4.6 -2.2,-6.2 -1.4,-1.6 -3.2,-2.4 -5.4,-2.4 -2.2,0 -4,0.8 -5.4,2.4 -1.5,1.6 -2.2,3.7 -2.2,6.2 0,2.5 0.7,4.6 2.2,6.2 1.5,1.6 3.3,2.4 5.4,2.4 2.2,0.1 4,-0.7 5.4,-2.3 m 27.4,4.3 c -1.8,1.4 -4.1,2.2 -6.9,2.2 -2.4,0 -4.5,-0.6 -6.4,-1.9 -1.8,-1.3 -3.1,-2.9 -3.9,-5 l 4,-1.7 c 0.6,1.4 1.4,2.6 2.6,3.4 1.1,0.8 2.4,1.2 3.7,1.2 1.4,0 2.6,-0.3 3.6,-0.9 1,-0.6 1.4,-1.4 1.4,-2.2 0,-1.5 -1.2,-2.7 -3.5,-3.4 l -4.1,-1 c -4.7,-1.2 -7,-3.4 -7,-6.8 0,-2.2 0.9,-3.9 2.7,-5.3 1.8,-1.3 4.1,-2 6.8,-2 a 11.66,11.66 0 0 1 5.8,1.5 c 1.7,1 2.9,2.4 3.6,4.1 l -4,1.7 c -0.5,-1 -1.2,-1.8 -2.2,-2.4 -1,-0.6 -2.2,-0.9 -3.5,-0.9 -1.2,0 -2.2,0.3 -3.2,0.9 -0.9,0.6 -1.4,1.3 -1.4,2.2 0,1.4 1.3,2.4 3.9,2.9 l 3.6,0.9 c 4.8,1.2 7.1,3.6 7.1,7.2 0.1,2.1 -0.9,3.9 -2.7,5.3" transform="matrix(4.3640898,0,0,4.3640898,-743.6409,-931.41629)" fill="#757575" class="F" clip-path="url(#A)" id="path1157" style="fill:#0e0e10;fill-opacity:1"></path></svg>