<svg xmlns:inkscape="http://www.inkscape.org/namespaces/inkscape" xmlns:sodipodi="http://sodipodi.sourceforge.net/DTD/sodipodi-0.dtd" xmlns="http://www.w3.org/2000/svg" xmlns:svg="http://www.w3.org/2000/svg" width="211.66667mm" height="209.73604mm" viewBox="0 0 211.66667 209.73604" id="svg5" inkscape:version="1.1.1 (c3084ef, 2021-09-22)" sodipodi:docname="medilager_logo_b.svg"><defs id="defs2"></defs><g inkscape:label="Ebene 1" inkscape:groupmode="layer" id="layer1" transform="translate(-54.47902,-106.59685)"><g id="g23929" transform="matrix(3.4686853,0,0,3.4686853,-134.49154,-259.08486)" inkscape:export-filename="/Users/alx/Desktop/medilager.png" inkscape:export-xdpi="96" inkscape:export-ydpi="96"><path id="path1113" style="fill:#0e0e10;stroke-width:0.0698382;stroke-linecap:round" d="m 54.479015,105.42372 h 61.022155 v 60.46557 H 54.479015 Z"></path><g aria-label="medilager" id="text1696" style="font-weight:900;font-size:10.5833px;line-height:1.25;font-family:Roboto;-inkscape-font-specification:'Roboto Heavy';letter-spacing:0px;fill:#ffffff;stroke-width:0.264583"><path d="m 62.846815,146.07689 0.05684,0.65629 q 0.594277,-0.75965 1.596797,-0.75965 1.059363,0 1.431432,0.84233 0.568439,-0.84233 1.643306,-0.84233 1.700149,0 1.746658,2.05672 v 3.63801 h -1.746658 v -3.52949 q 0,-0.42891 -0.144694,-0.62528 -0.144693,-0.19637 -0.527098,-0.19637 -0.516762,0 -0.769976,0.45992 l 0.0052,0.0723 v 3.81888 h -1.746658 v -3.51916 q 0,-0.43924 -0.139526,-0.63561 -0.139526,-0.19637 -0.532266,-0.19637 -0.50126,0 -0.764809,0.45992 v 3.89122 h -1.74149 v -5.59137 z" id="path1110"></path><path d="m 73.021873,151.77161 q -1.286739,0 -2.082554,-0.76481 -0.795814,-0.76997 -0.795814,-1.99987 v -0.14469 q 0,-0.85783 0.315225,-1.51412 0.320393,-0.65629 0.930173,-1.01285 0.60978,-0.36174 1.446935,-0.36174 1.178219,0 1.860346,0.73381 0.682127,0.72863 0.682127,2.03604 v 0.67696 h -3.46231 q 0.09302,0.47026 0.408242,0.73897 0.315225,0.26872 0.816485,0.26872 0.826821,0 1.291907,-0.57878 l 0.795814,0.94051 q -0.32556,0.44959 -0.925005,0.7183 -0.594277,0.26355 -1.281571,0.26355 z m -0.19637,-4.45449 q -0.764809,0 -0.909502,1.01285 h 1.756993 v -0.13436 q 0.01033,-0.41857 -0.211873,-0.64595 -0.222208,-0.23254 -0.635618,-0.23254 z" id="path1107"></path><path d="m 75.864067,148.83123 q 0,-1.32808 0.573606,-2.09289 0.573607,-0.76481 1.601965,-0.76481 0.749306,0 1.260901,0.58911 v -2.83186 h 1.746658 v 7.93748 h -1.565791 l -0.08785,-0.59945 q -0.537433,0.7028 -1.364254,0.7028 -0.997351,0 -1.581293,-0.76481 -0.583942,-0.76481 -0.583942,-2.17557 z m 1.74149,0.10852 q 0,1.48828 0.868161,1.48828 0.578775,0 0.826821,-0.48576 v -2.12906 q -0.237711,-0.49609 -0.816485,-0.49609 -0.80615,0 -0.873329,1.30224 z" id="path1104"></path><path d="M 83.873888,151.66826 H 82.12723 v -5.59137 h 1.746658 z m -1.85001,-7.03314 q 0,-0.37207 0.268716,-0.60978 0.268717,-0.23771 0.69763,-0.23771 0.428913,0 0.69763,0.23771 0.268716,0.23771 0.268716,0.60978 0,0.37207 -0.268716,0.60978 -0.268717,0.23771 -0.69763,0.23771 -0.428913,0 -0.69763,-0.23771 -0.268716,-0.23771 -0.268716,-0.60978 z" id="path1101"></path><path d="m 86.788429,151.66826 h -1.746657 v -7.93748 h 1.746657 z" id="path1098"></path><path d="m 91.01555,151.66826 q -0.09302,-0.17053 -0.165364,-0.50126 -0.48059,0.60461 -1.343583,0.60461 -0.790647,0 -1.343583,-0.47542 -0.552936,-0.48059 -0.552936,-1.20406 0,-0.9095 0.671791,-1.37459 0.671792,-0.46508 1.953363,-0.46508 h 0.537433 v -0.29456 q 0,-0.76997 -0.666623,-0.76997 -0.620116,0 -0.620116,0.60978 h -1.74149 q 0,-0.81132 0.687294,-1.31775 0.692462,-0.50643 1.762161,-0.50643 1.069699,0 1.689814,0.52193 0.620115,0.52193 0.635618,1.43144 v 2.47529 q 0.01033,0.76998 0.237711,1.17822 v 0.0879 z m -1.090369,-1.13688 q 0.32556,0 0.537433,-0.13953 0.21704,-0.13952 0.310057,-0.31522 v -0.894 h -0.506427 q -0.909502,0 -0.909502,0.81649 0,0.23771 0.160196,0.38757 0.160197,0.14469 0.408243,0.14469 z" id="path1095"></path><path d="m 93.284136,148.83123 q 0,-0.84749 0.279051,-1.49861 0.279052,-0.65112 0.800983,-1.00252 0.52193,-0.35657 1.214392,-0.35657 0.873329,0 1.364253,0.58911 l 0.06201,-0.48575 h 1.581294 v 5.3795 q 0,0.73897 -0.346231,1.28157 -0.341064,0.54777 -0.992185,0.83715 -0.651121,0.29456 -1.508947,0.29456 -0.614947,0 -1.193722,-0.23255 -0.573606,-0.23254 -0.878496,-0.60461 l 0.728635,-1.02319 q 0.485757,0.57361 1.281572,0.57361 1.157548,0 1.157548,-1.18856 v -0.17569 q -0.50126,0.55293 -1.266068,0.55293 -1.023191,0 -1.653641,-0.78031 -0.63045,-0.78548 -0.63045,-2.09806 z m 1.746657,0.10852 q 0,0.6873 0.258382,1.09037 0.258381,0.39791 0.723467,0.39791 0.563272,0 0.821653,-0.37724 v -2.35127 q -0.253214,-0.3824 -0.811317,-0.3824 -0.465087,0 -0.728636,0.41857 -0.263549,0.41341 -0.263549,1.20406 z" id="path1092"></path><path d="m 102.29131,151.77161 q -1.28674,0 -2.08255,-0.76481 -0.795817,-0.76997 -0.795817,-1.99987 v -0.14469 q 0,-0.85783 0.315225,-1.51412 0.320392,-0.65629 0.930172,-1.01285 0.60978,-0.36174 1.44694,-0.36174 1.17821,0 1.86034,0.73381 0.68213,0.72863 0.68213,2.03604 v 0.67696 h -3.46231 q 0.093,0.47026 0.40824,0.73897 0.31523,0.26872 0.81649,0.26872 0.82682,0 1.2919,-0.57878 l 0.79582,0.94051 q -0.32556,0.44959 -0.92501,0.7183 -0.59428,0.26355 -1.28157,0.26355 z m -0.19637,-4.45449 q -0.76481,0 -0.9095,1.01285 h 1.75699 v -0.13436 q 0.0103,-0.41857 -0.21187,-0.64595 -0.22221,-0.23254 -0.63562,-0.23254 z" id="path1089"></path><path d="m 108.73534,147.65301 -0.57361,-0.0413 q -0.82165,0 -1.05419,0.51676 v 3.53983 h -1.74149 v -5.59137 h 1.63297 l 0.0568,0.7183 q 0.43925,-0.82166 1.22473,-0.82166 0.27905,0 0.48576,0.062 z" id="path1086"></path></g><path id="path1083" style="fill:#ffffff;stroke-width:0.0531861;stroke-linecap:round" d="m 103.53914,105.42372 h 5.2272 v 34.21441 h -5.2272 z"></path><g aria-label="Medizinprodukte" id="text21278" style="font-weight:300;font-size:6.62977px;line-height:1.25;font-family:Roboto;-inkscape-font-specification:'Roboto Light';letter-spacing:0px;fill:#ffffff;stroke-width:0.165744"><path d="m 61.742198,155.79029 1.738373,4.1598 1.744846,-4.1598 h 0.5309 v 4.71336 h -0.398175 v -2.05238 l 0.03237,-2.10418 -1.754558,4.15656 h -0.307533 l -1.748084,-4.14037 0.03237,2.07504 v 2.06533 h -0.398175 v -4.71336 z" id="path1080"></path><path d="m 68.216583,160.56839 q -0.446733,0 -0.809298,-0.22013 -0.359328,-0.22013 -0.560034,-0.61183 -0.200706,-0.39494 -0.200706,-0.88375 v -0.1392 q 0,-0.505 0.194231,-0.90965 0.197469,-0.40465 0.547086,-0.63449 0.349617,-0.23308 0.757503,-0.23308 0.637727,0 1.010004,0.43702 0.375514,0.43379 0.375514,1.18805 v 0.21689 h -2.499112 v 0.0745 q 0,0.59564 0.339905,0.99382 0.343142,0.39493 0.861093,0.39493 0.31077,0 0.547085,-0.1133 0.239553,-0.1133 0.433784,-0.36256 l 0.24279,0.18452 q -0.42731,0.6183 -1.239845,0.6183 z m -0.07122,-3.30194 q -0.437021,0 -0.73808,0.32049 -0.297822,0.32048 -0.362566,0.86109 h 2.100938 v -0.0421 q -0.01619,-0.50501 -0.28811,-0.82225 -0.271924,-0.31725 -0.712182,-0.31725 z" id="path1077"></path><path d="m 70.136238,158.71995 q 0,-0.81577 0.362565,-1.29811 0.365803,-0.48558 0.990581,-0.48558 0.708945,0 1.081222,0.56004 v -1.96498 h 0.385226 v 4.97233 h -0.362565 l -0.01619,-0.46616 q -0.372277,0.5309 -1.094171,0.5309 -0.605355,0 -0.977632,-0.48558 -0.36904,-0.48881 -0.36904,-1.31754 z m 0.3917,0.068 q 0,0.6701 0.268687,1.05857 0.268687,0.38522 0.757503,0.38522 0.71542,0 1.016478,-0.63125 v -1.64449 q -0.301058,-0.68305 -1.010004,-0.68305 -0.488816,0 -0.76074,0.38522 -0.271924,0.38199 -0.271924,1.12978 z" id="path1074"></path><path d="M 74.415806,160.50365 H 74.027343 V 157.001 h 0.388463 z m -0.456444,-4.51589 q 0,-0.11006 0.07122,-0.18452 0.07122,-0.0777 0.194232,-0.0777 0.123013,0 0.194231,0.0777 0.07446,0.0745 0.07446,0.18452 0,0.11007 -0.07446,0.18452 -0.07122,0.0745 -0.194231,0.0745 -0.123014,0 -0.194232,-0.0745 -0.07122,-0.0745 -0.07122,-0.18452 z" id="path1071"></path><path d="m 75.726869,160.17669 h 2.275747 v 0.32696 h -2.754851 v -0.28488 l 2.123598,-2.88433 H 75.312509 V 157.001 h 2.54767 v 0.28811 z" id="path1068"></path><path d="M 79.129158,160.50365 H 78.740695 V 157.001 h 0.388463 z m -0.456444,-4.51589 q 0,-0.11006 0.07122,-0.18452 0.07122,-0.0777 0.194232,-0.0777 0.123013,0 0.194231,0.0777 0.07446,0.0745 0.07446,0.18452 0,0.11007 -0.07446,0.18452 -0.07122,0.0745 -0.194231,0.0745 -0.123013,0 -0.194232,-0.0745 -0.07122,-0.0745 -0.07122,-0.18452 z" id="path1065"></path><path d="m 80.553523,157.001 0.01295,0.59889 q 0.197469,-0.32372 0.492053,-0.49206 0.294585,-0.17157 0.650676,-0.17157 0.563272,0 0.838433,0.31725 0.275161,0.31724 0.278398,0.95173 v 2.29841 H 82.440807 V 158.202 q -0.0032,-0.46939 -0.200706,-0.69923 -0.194232,-0.22984 -0.624779,-0.22984 -0.359328,0 -0.637726,0.2266 -0.275162,0.22337 -0.407887,0.60536 v 2.39876 H 80.184484 V 157.001 Z" id="path1062"></path><path d="m 86.639444,158.78793 q 0,0.81901 -0.362566,1.30136 -0.362565,0.4791 -0.971157,0.4791 -0.718657,0 -1.100646,-0.505 v 1.78693 H 83.81985 V 157.001 h 0.359328 l 0.01942,0.4953 q 0.378752,-0.56004 1.097408,-0.56004 0.628016,0 0.984107,0.47587 0.359328,0.47587 0.359328,1.32077 z m -0.388463,-0.068 q 0,-0.67009 -0.275161,-1.05856 -0.275162,-0.38846 -0.767215,-0.38846 -0.356091,0 -0.611829,0.17157 -0.255739,0.17157 -0.391701,0.49853 v 1.6801 q 0.1392,0.30106 0.398175,0.45968 0.258975,0.15862 0.611829,0.15862 0.488816,0 0.760741,-0.38846 0.275161,-0.3917 0.275161,-1.13302 z" id="path1059"></path><path d="m 89.119133,157.3312 q -0.123013,-0.0227 -0.262213,-0.0227 -0.362565,0 -0.615066,0.20394 -0.249264,0.20071 -0.356091,0.58593 v 2.40524 H 87.500537 V 157.001 h 0.378751 l 0.0065,0.5568 q 0.307533,-0.62154 0.987343,-0.62154 0.16186,0 0.255739,0.0421 z" id="path1056"></path><path d="m 89.449327,158.70053 q 0,-0.505 0.194232,-0.90965 0.197469,-0.40465 0.55356,-0.62802 0.359328,-0.2266 0.812535,-0.2266 0.699233,0 1.133017,0.49205 0.433784,0.48882 0.433784,1.29812 v 0.0809 q 0,0.50824 -0.197469,0.91612 -0.194231,0.40465 -0.550322,0.62478 -0.356092,0.22013 -0.812536,0.22013 -0.695996,0 -1.133017,-0.48882 -0.433784,-0.49205 -0.433784,-1.30135 z m 0.388463,0.10683 q 0,0.62801 0.32372,1.03266 0.326956,0.40141 0.854618,0.40141 0.524425,0 0.848145,-0.40141 0.326956,-0.40465 0.326956,-1.06503 v -0.0745 q 0,-0.40141 -0.148911,-0.73484 -0.148911,-0.33343 -0.417598,-0.51472 -0.268686,-0.18452 -0.615066,-0.18452 -0.517951,0 -0.844907,0.40789 -0.326957,0.40465 -0.326957,1.0618 z" id="path1053"></path><path d="m 93.223892,158.71995 q 0,-0.81577 0.362566,-1.29811 0.365802,-0.48558 0.99058,-0.48558 0.708945,0 1.081223,0.56004 v -1.96498 h 0.385225 v 4.97233 h -0.362565 l -0.01619,-0.46616 q -0.372277,0.5309 -1.094171,0.5309 -0.605355,0 -0.977632,-0.48558 -0.36904,-0.48881 -0.36904,-1.31754 z m 0.3917,0.068 q 0,0.6701 0.268687,1.05857 0.268687,0.38522 0.757503,0.38522 0.71542,0 1.016479,-0.63125 v -1.64449 q -0.301059,-0.68305 -1.010004,-0.68305 -0.488816,0 -0.760741,0.38522 -0.271924,0.38199 -0.271924,1.12978 z" id="path1050"></path><path d="m 99.322762,160.06015 q -0.349617,0.50824 -1.116831,0.50824 -0.560034,0 -0.851382,-0.32372 -0.291347,-0.32695 -0.297821,-0.96468 V 157.001 h 0.385225 v 2.23043 q 0,1.00029 0.809299,1.00029 0.84167,0 1.065036,-0.69599 V 157.001 h 0.388463 v 3.50265 h -0.375514 z" id="path1047"></path><path d="m 101.54024,158.73938 -0.44349,0.42731 v 1.33696 h -0.38847 v -4.97233 h 0.38847 v 3.18216 l 0.3658,-0.39494 1.3402,-1.31754 h 0.48881 l -1.48587,1.47616 1.61536,2.02649 h -0.46292 z" id="path1044"></path><path d="m 104.56054,156.1043 v 0.8967 h 0.72513 v 0.31725 h -0.72513 v 2.33402 q 0,0.29134 0.10359,0.43378 0.10683,0.14244 0.35286,0.14244 0.0971,0 0.314,-0.0324 l 0.0162,0.31725 q -0.15215,0.055 -0.41436,0.055 -0.39818,0 -0.57946,-0.22984 -0.18128,-0.23308 -0.18128,-0.68305 v -2.33725 h -0.6442 V 157.001 h 0.6442 v -0.8967 z" id="path1041"></path><path d="m 107.45136,160.56839 q -0.44674,0 -0.8093,-0.22013 -0.35933,-0.22013 -0.56004,-0.61183 -0.2007,-0.39494 -0.2007,-0.88375 v -0.1392 q 0,-0.505 0.19423,-0.90965 0.19747,-0.40465 0.54708,-0.63449 0.34962,-0.23308 0.75751,-0.23308 0.63772,0 1.01,0.43702 0.37552,0.43379 0.37552,1.18805 v 0.21689 h -2.49912 v 0.0745 q 0,0.59564 0.33991,0.99382 0.34314,0.39493 0.86109,0.39493 0.31077,0 0.54709,-0.1133 0.23955,-0.1133 0.43378,-0.36256 l 0.24279,0.18452 q -0.42731,0.6183 -1.23984,0.6183 z m -0.0712,-3.30194 q -0.43702,0 -0.73808,0.32049 -0.29782,0.32048 -0.36257,0.86109 h 2.10094 v -0.0421 q -0.0162,-0.50501 -0.28811,-0.82225 -0.27192,-0.31725 -0.71218,-0.31725 z" id="path1038"></path></g></g></g></svg>