<svg xmlns:inkscape="http://www.inkscape.org/namespaces/inkscape" xmlns:sodipodi="http://sodipodi.sourceforge.net/DTD/sodipodi-0.dtd" xmlns="http://www.w3.org/2000/svg" xmlns:svg="http://www.w3.org/2000/svg" id="Ebene_1" x="0px" y="0px" viewBox="0 0 699.99882 266.568" xml:space="preserve" sodipodi:docname="Reischl.svg" width="699.99884" height="266.56799" inkscape:version="1.1.1 (c3084ef, 2021-09-22)"><defs id="defs1208"></defs><style type="text/css" id="style1137">	.st0{fill:#575656;}	.st1{fill:#FFFFFF;}	.st2{fill:#EE7C00;}</style><rect x="0" y="51.800846" class="st0" width="699.99884" height="162.27872" id="rect1139" style="fill:#0e0e10;fill-opacity:1;stroke-width:2.29208"></rect><g id="g1155" style="fill:#ffffff;fill-opacity:1" transform="matrix(2.2920722,0,0,2.2920722,-614.04614,-435.49372)">	<path class="st1" d="m 307.2,268.5 v -40 H 320 c 3.4,0 6.1,0.6 8.2,1.7 2,1.2 3.5,2.6 4.4,4.4 0.9,1.8 1.4,3.7 1.4,5.6 0,2.6 -0.6,4.8 -1.8,6.8 -1.2,2 -3.1,3.4 -5.6,4.4 l 9.4,17.1 h -6.5 l -8.6,-16.4 h -8 v 16.4 z m 5.6,-21.3 h 7.7 c 2.5,0 4.4,-0.6 5.6,-1.9 1.3,-1.2 1.9,-2.9 1.9,-5 0,-2.2 -0.7,-3.9 -2,-5.1 -1.4,-1.2 -3.2,-1.8 -5.6,-1.8 h -7.6 z" id="path1141" style="fill:#ffffff;fill-opacity:1"></path>	<path class="st1" d="m 346,268.5 v -40 h 25.2 v 5.1 h -19.4 v 11.6 h 14.6 v 5.2 h -14.6 v 13 h 20.9 v 5.2 H 346 Z" id="path1143" style="fill:#ffffff;fill-opacity:1"></path>	<path class="st1" d="m 383.2,268.5 v -40 h 5.8 v 40 z" id="path1145" style="fill:#ffffff;fill-opacity:1"></path>	<path class="st1" d="m 399.1,262.5 4.1,-3.7 c 0.8,0.8 1.6,1.7 2.6,2.5 1,0.8 2.2,1.5 3.5,2.1 1.3,0.6 2.9,0.8 4.6,0.8 2.6,0 4.7,-0.6 6.2,-1.8 1.5,-1.2 2.2,-2.8 2.2,-4.8 0,-2.2 -0.8,-3.9 -2.5,-5 -1.7,-1.1 -4.1,-2 -7.3,-2.6 -3.4,-0.7 -6.2,-2 -8.3,-3.9 -2.1,-1.9 -3.2,-4.4 -3.2,-7.6 0,-2 0.5,-3.8 1.5,-5.4 1,-1.7 2.5,-3 4.5,-4 2,-1 4.5,-1.5 7.4,-1.5 2.6,0 4.8,0.4 6.5,1.1 1.7,0.7 3,1.5 4,2.4 1,0.9 1.6,1.6 2,2.2 l -3.8,3.5 c -0.3,-0.4 -0.9,-0.9 -1.6,-1.6 -0.8,-0.6 -1.7,-1.2 -2.9,-1.7 -1.2,-0.5 -2.6,-0.8 -4.4,-0.8 -1.7,0 -3.1,0.3 -4.1,0.9 -1.1,0.6 -1.9,1.3 -2.4,2.2 -0.5,0.9 -0.8,1.8 -0.8,2.7 0,2 0.8,3.4 2.5,4.4 1.6,1 4,1.8 7,2.5 2,0.4 3.9,1.1 5.7,2.1 1.8,0.9 3.3,2.2 4.4,3.9 1.1,1.7 1.7,3.9 1.7,6.6 0,2.3 -0.6,4.4 -1.9,6.1 -1.2,1.8 -2.9,3.2 -5,4.2 -2.1,1 -4.5,1.5 -7.2,1.5 -2.5,0 -4.7,-0.4 -6.6,-1.1 -1.9,-0.7 -3.6,-1.6 -5,-2.7 -1.4,-1.4 -2.5,-2.5 -3.4,-3.5 z" id="path1147" style="fill:#ffffff;fill-opacity:1"></path>	<path class="st1" d="m 468.6,258.1 4,3.4 c -0.6,0.9 -1.6,2 -3,3.3 -1.4,1.3 -3.2,2.4 -5.3,3.3 -2.1,0.9 -4.6,1.4 -7.4,1.4 -3.9,0 -7.4,-0.9 -10.4,-2.7 -3,-1.8 -5.4,-4.3 -7.1,-7.4 -1.7,-3.1 -2.5,-6.7 -2.5,-10.7 0,-2.9 0.5,-5.7 1.4,-8.2 1,-2.5 2.3,-4.8 4.1,-6.7 1.8,-1.9 3.9,-3.5 6.4,-4.6 2.5,-1.1 5.2,-1.7 8.2,-1.7 2.8,0 5.3,0.4 7.3,1.3 2,0.9 3.7,1.9 5.1,3.1 1.3,1.2 2.4,2.4 3.2,3.5 l -4.1,3.5 c -0.6,-0.9 -1.5,-1.9 -2.4,-2.8 -1,-1 -2.2,-1.8 -3.7,-2.4 -1.5,-0.7 -3.2,-1 -5.3,-1 -2.9,0 -5.4,0.7 -7.5,2.2 -2.1,1.4 -3.7,3.4 -4.9,5.7 -1.1,2.4 -1.7,5 -1.7,8 0,2.9 0.6,5.5 1.7,7.9 1.1,2.4 2.8,4.2 4.8,5.6 2.1,1.4 4.5,2.1 7.4,2.1 2.4,0 4.4,-0.4 5.9,-1.1 1.5,-0.8 2.7,-1.6 3.6,-2.6 1,-1.1 1.7,-1.8 2.2,-2.4 z" id="path1149" style="fill:#ffffff;fill-opacity:1"></path>	<path class="st1" d="m 482.6,268.5 v -40 h 5.8 v 16.7 h 21.9 v -16.7 h 5.8 v 40 h -5.8 v -18.1 h -21.9 v 18.1 z" id="path1151" style="fill:#ffffff;fill-opacity:1"></path>	<path class="st1" d="m 528.6,268.5 v -40 h 5.8 v 34.9 h 20.8 v 5.1 z" id="path1153" style="fill:#ffffff;fill-opacity:1"></path></g><g id="g1173" style="fill:#0e0e10;fill-opacity:1" transform="matrix(2.2920722,0,0,2.2920722,-614.04614,-435.49372)">	<path class="st0" d="m 307.2,202.8 v -12.7 h 4 c 0.9,0 1.6,0.1 2.1,0.4 0.5,0.3 1,0.5 1.3,0.9 0.3,0.4 0.6,0.8 0.7,1.2 0.1,0.4 0.2,0.9 0.2,1.3 0,0.8 -0.2,1.5 -0.6,2.1 -0.4,0.6 -0.9,1 -1.5,1.3 -0.6,0.3 -1.4,0.4 -2.2,0.4 H 309 v 5 h -1.8 z m 1.8,-6.5 h 2.3 c 0.8,0 1.4,-0.2 1.8,-0.6 0.4,-0.4 0.6,-1 0.6,-1.7 0,-0.7 -0.2,-1.3 -0.7,-1.7 -0.5,-0.4 -1,-0.6 -1.8,-0.6 H 309 Z" id="path1157" style="fill:#0e0e10;fill-opacity:1"></path>	<path class="st0" d="m 318,202.8 v -12.7 h 4 c 1.1,0 1.9,0.2 2.6,0.6 0.6,0.4 1.1,0.8 1.4,1.4 0.3,0.6 0.4,1.2 0.4,1.8 0,0.8 -0.2,1.5 -0.6,2.1 -0.4,0.6 -1,1.1 -1.8,1.4 l 3,5.4 h -2 l -2.7,-5.2 h -2.5 v 5.2 z m 1.8,-6.7 h 2.4 c 0.8,0 1.4,-0.2 1.8,-0.6 0.4,-0.4 0.6,-0.9 0.6,-1.6 0,-0.7 -0.2,-1.2 -0.6,-1.6 -0.4,-0.4 -1,-0.6 -1.8,-0.6 h -2.4 z" id="path1159" style="fill:#0e0e10;fill-opacity:1"></path>	<path class="st0" d="m 334.7,203.2 c -0.9,0 -1.8,-0.2 -2.5,-0.5 -0.8,-0.3 -1.5,-0.8 -2.1,-1.4 -0.6,-0.6 -1,-1.3 -1.4,-2.1 -0.3,-0.8 -0.5,-1.7 -0.5,-2.6 0,-0.9 0.2,-1.8 0.5,-2.6 0.3,-0.8 0.8,-1.5 1.4,-2.1 0.6,-0.6 1.3,-1.1 2.1,-1.4 0.8,-0.3 1.6,-0.5 2.5,-0.5 0.9,0 1.8,0.2 2.5,0.5 0.8,0.3 1.5,0.8 2.1,1.4 0.6,0.6 1,1.3 1.4,2.1 0.3,0.8 0.5,1.7 0.5,2.6 0,0.9 -0.2,1.8 -0.5,2.6 -0.3,0.8 -0.8,1.5 -1.4,2.1 -0.6,0.6 -1.3,1.1 -2.1,1.4 -0.8,0.3 -1.6,0.5 -2.5,0.5 z m 0,-1.8 c 0.9,0 1.7,-0.2 2.4,-0.7 0.7,-0.5 1.2,-1.1 1.6,-1.8 0.4,-0.8 0.6,-1.6 0.6,-2.5 0,-0.9 -0.2,-1.7 -0.6,-2.5 -0.4,-0.8 -0.9,-1.4 -1.6,-1.8 -0.7,-0.4 -1.5,-0.7 -2.4,-0.7 -0.9,0 -1.7,0.2 -2.4,0.7 -0.7,0.5 -1.2,1.1 -1.6,1.8 -0.4,0.8 -0.6,1.6 -0.6,2.5 0,0.9 0.2,1.7 0.6,2.5 0.4,0.8 0.9,1.4 1.6,1.8 0.6,0.5 1.4,0.7 2.4,0.7 z" id="path1161" style="fill:#0e0e10;fill-opacity:1"></path>	<path class="st0" d="m 343.5,202.8 v -12.7 h 8 v 1.6 h -6.1 v 3.9 h 4.7 v 1.6 h -4.7 v 5.5 h -1.9 z" id="path1163" style="fill:#0e0e10;fill-opacity:1"></path>	<path class="st0" d="m 351,202.8 v -2.1 h 2.1 v 2.1 z" id="path1165" style="fill:#0e0e10;fill-opacity:1"></path>	<path class="st0" d="m 359.4,202.8 v -12.7 h 4.2 c 1.3,0 2.5,0.2 3.6,0.7 1,0.4 1.8,1.1 2.4,2.1 0.6,0.9 0.9,2.1 0.9,3.6 0,1.4 -0.3,2.6 -0.9,3.5 -0.6,0.9 -1.4,1.6 -2.4,2.1 -1,0.5 -2.2,0.7 -3.6,0.7 z m 1.8,-1.6 h 2.4 c 1.6,0 2.8,-0.4 3.7,-1.2 0.9,-0.8 1.3,-1.9 1.3,-3.5 0,-1.5 -0.4,-2.7 -1.3,-3.5 -0.9,-0.8 -2.1,-1.2 -3.8,-1.2 h -2.3 z" id="path1167" style="fill:#0e0e10;fill-opacity:1"></path>	<path class="st0" d="m 372.9,202.8 v -12.7 h 4 c 1.1,0 1.9,0.2 2.6,0.6 0.6,0.4 1.1,0.8 1.4,1.4 0.3,0.6 0.4,1.2 0.4,1.8 0,0.8 -0.2,1.5 -0.6,2.1 -0.4,0.6 -1,1.1 -1.8,1.4 l 3,5.4 h -2.1 l -2.7,-5.2 h -2.5 v 5.2 z m 1.7,-6.7 h 2.4 c 0.8,0 1.4,-0.2 1.8,-0.6 0.4,-0.4 0.6,-0.9 0.6,-1.6 0,-0.7 -0.2,-1.2 -0.6,-1.6 -0.4,-0.4 -1,-0.6 -1.8,-0.6 h -2.4 z" id="path1169" style="fill:#0e0e10;fill-opacity:1"></path>	<path class="st0" d="m 384,202.8 v -2.1 h 2.1 v 2.1 z" id="path1171" style="fill:#0e0e10;fill-opacity:1"></path></g><g id="g1199" style="fill:#0e0e10;fill-opacity:1" transform="matrix(2.2920722,0,0,2.2920722,-614.04614,-435.49372)">	<path class="st0" d="m 307.2,305.8 v -12.7 h 4 c 1.1,0 1.9,0.2 2.6,0.6 0.6,0.4 1.1,0.8 1.4,1.4 0.3,0.6 0.4,1.2 0.4,1.8 0,0.8 -0.2,1.5 -0.6,2.1 -0.4,0.6 -1,1.1 -1.8,1.4 l 3,5.4 h -2.1 l -2.7,-5.2 H 309 v 5.2 z M 309,299 h 2.4 c 0.8,0 1.4,-0.2 1.8,-0.6 0.4,-0.4 0.6,-0.9 0.6,-1.6 0,-0.7 -0.2,-1.2 -0.6,-1.6 -0.4,-0.4 -1,-0.6 -1.8,-0.6 H 309 Z" id="path1175" style="fill:#0e0e10;fill-opacity:1"></path>	<path class="st0" d="m 328.2,305.8 v -12.7 h 8 v 1.6 H 330 v 3.7 h 4.6 V 300 H 330 v 4.1 h 6.6 v 1.6 h -8.4 z" id="path1177" style="fill:#0e0e10;fill-opacity:1"></path>	<path class="st0" d="m 357.3,302.5 1.3,1.1 c -0.2,0.3 -0.5,0.6 -0.9,1 -0.4,0.4 -1,0.7 -1.7,1 -0.7,0.3 -1.5,0.4 -2.3,0.4 -1.2,0 -2.3,-0.3 -3.3,-0.9 -1,-0.6 -1.7,-1.4 -2.2,-2.4 -0.5,-1 -0.8,-2.1 -0.8,-3.4 0,-0.9 0.2,-1.8 0.5,-2.6 0.3,-0.8 0.7,-1.5 1.3,-2.1 0.6,-0.6 1.2,-1.1 2,-1.4 0.8,-0.3 1.6,-0.5 2.6,-0.5 0.9,0 1.7,0.1 2.3,0.4 0.6,0.3 1.2,0.6 1.6,1 0.4,0.4 0.8,0.8 1,1.1 l -1.3,1.1 c -0.2,-0.3 -0.5,-0.6 -0.8,-0.9 -0.3,-0.3 -0.7,-0.6 -1.2,-0.8 -0.5,-0.2 -1,-0.3 -1.7,-0.3 -0.9,0 -1.7,0.2 -2.4,0.7 -0.7,0.5 -1.2,1.1 -1.5,1.8 -0.4,0.8 -0.5,1.6 -0.5,2.5 0,0.9 0.2,1.7 0.5,2.5 0.4,0.7 0.9,1.3 1.5,1.8 0.6,0.5 1.4,0.7 2.3,0.7 0.8,0 1.4,-0.1 1.9,-0.4 0.5,-0.2 0.9,-0.5 1.1,-0.8 0.3,-0.2 0.6,-0.4 0.7,-0.6 z" id="path1179" style="fill:#0e0e10;fill-opacity:1"></path>	<path class="st0" d="m 370.4,305.8 v -12.7 h 1.8 v 5.3 h 6.9 v -5.3 h 1.8 v 12.7 h -1.8 V 300 h -6.9 v 5.7 h -1.8 z" id="path1181" style="fill:#0e0e10;fill-opacity:1"></path>	<path class="st0" d="m 397.1,305.8 v -11.1 h -4.5 v -1.6 h 10.9 v 1.6 H 399 v 11.1 z" id="path1183" style="fill:#0e0e10;fill-opacity:1"></path>	<path class="st0" d="m 413.9,303.9 1.3,-1.2 c 0.2,0.3 0.5,0.5 0.8,0.8 0.3,0.3 0.7,0.5 1.1,0.7 0.4,0.2 0.9,0.3 1.5,0.3 0.8,0 1.5,-0.2 2,-0.6 0.5,-0.4 0.7,-0.9 0.7,-1.5 0,-0.7 -0.3,-1.2 -0.8,-1.6 -0.5,-0.3 -1.3,-0.6 -2.3,-0.8 -1.1,-0.2 -2,-0.6 -2.6,-1.2 -0.7,-0.6 -1,-1.4 -1,-2.4 0,-0.6 0.2,-1.2 0.5,-1.7 0.3,-0.5 0.8,-1 1.4,-1.3 0.6,-0.3 1.4,-0.5 2.3,-0.5 0.8,0 1.5,0.1 2,0.3 0.5,0.2 1,0.5 1.3,0.8 0.3,0.3 0.5,0.5 0.6,0.7 l -1.2,1.1 c -0.1,-0.1 -0.3,-0.3 -0.5,-0.5 -0.2,-0.2 -0.5,-0.4 -0.9,-0.5 -0.4,-0.2 -0.8,-0.2 -1.4,-0.2 -0.5,0 -1,0.1 -1.3,0.3 -0.3,0.2 -0.6,0.4 -0.8,0.7 -0.2,0.3 -0.2,0.6 -0.2,0.8 0,0.6 0.3,1.1 0.8,1.4 0.5,0.3 1.3,0.6 2.2,0.8 0.6,0.1 1.2,0.4 1.8,0.7 0.6,0.3 1,0.7 1.4,1.2 0.4,0.5 0.5,1.2 0.5,2.1 0,0.7 -0.2,1.4 -0.6,1.9 -0.4,0.6 -0.9,1 -1.6,1.3 -0.7,0.3 -1.4,0.5 -2.3,0.5 -0.8,0 -1.5,-0.1 -2.1,-0.3 -0.6,-0.2 -1.1,-0.5 -1.6,-0.9 -0.4,-0.6 -0.8,-0.9 -1,-1.2 z" id="path1185" style="fill:#0e0e10;fill-opacity:1"></path>	<path class="st0" d="m 434,305.8 5,-12.7 h 1.9 l 5,12.7 h -2 l -1.3,-3.5 h -5.2 l -1.3,3.5 z m 3.7,-5.1 h 4.1 l -2.1,-5.6 z" id="path1187" style="fill:#0e0e10;fill-opacity:1"></path>	<path class="st0" d="m 457.1,305.8 v -12.7 h 1.8 l 6.9,9.9 v -9.9 h 1.8 v 12.7 h -1.8 l -6.9,-9.9 v 9.9 z" id="path1189" style="fill:#0e0e10;fill-opacity:1"></path>	<path class="st0" d="m 482.6,305.8 -3.4,-12.7 h 2 l 2.4,10.2 2.8,-9.8 h 1.8 l 2.7,9.8 2.4,-10.2 h 1.9 l -3.4,12.7 h -1.9 l -2.6,-9.4 -2.7,9.4 z" id="path1191" style="fill:#0e0e10;fill-opacity:1"></path>	<path class="st0" d="m 504.9,305.8 5,-12.7 h 1.9 l 5,12.7 h -2 l -1.3,-3.5 h -5.2 l -1.3,3.5 z m 3.8,-5.1 h 4.1 l -2.1,-5.6 z" id="path1193" style="fill:#0e0e10;fill-opacity:1"></path>	<path class="st0" d="m 528.1,305.8 v -12.7 h 1.8 v 11.1 h 6.6 v 1.6 z" id="path1195" style="fill:#0e0e10;fill-opacity:1"></path>	<path class="st0" d="m 548.8,305.8 v -11.1 h -4.5 v -1.6 h 10.9 v 1.6 h -4.5 v 11.1 z" id="path1197" style="fill:#0e0e10;fill-opacity:1"></path></g><g id="g1203" style="fill:#0e0e10;fill-opacity:1" transform="matrix(2.2920722,0,0,2.2920722,-614.04614,-435.49372)">	<rect x="286.10001" y="190.2" class="st2" width="3" height="115.7" id="rect1201" style="fill:#0e0e10;fill-opacity:1"></rect></g></svg>