<svg xmlns:inkscape="http://www.inkscape.org/namespaces/inkscape" xmlns:sodipodi="http://sodipodi.sourceforge.net/DTD/sodipodi-0.dtd" xmlns="http://www.w3.org/2000/svg" xmlns:svg="http://www.w3.org/2000/svg" xmlns:rdf="http://www.w3.org/1999/02/22-rdf-syntax-ns#" xmlns:cc="http://creativecommons.org/ns#" xmlns:dc="http://purl.org/dc/elements/1.1/" viewBox="0 0 654.19349 153.08185" height="153.08185" width="654.19348" xml:space="preserve" id="svg2" sodipodi:docname="Rotary_International_1.svg" inkscape:version="1.1.1 (c3084ef, 2021-09-22)"><metadata></metadata><defs id="defs6"><clipPath id="clipPath18" clipPathUnits="userSpaceOnUse"><path id="path16" d="M 0,110.869 H 294.194 V 0 H 0 Z"></path></clipPath></defs><g id="g22630" transform="translate(267.65669,-2.3666003)"><g transform="matrix(1.3333333,0,0,-1.3333333,0,147.82533)" id="g10" style="fill:#0e0e10"><g id="g12"><g clip-path="url(#clipPath18)" id="g14"><g transform="translate(138.4446,68.6444)" id="g20"><path id="path22" d="m 0,0 c -3.072,-0.184 -6.098,-1.94 -7.982,-3.276 v 1.892 c 0,0.641 -0.518,1.151 -1.16,1.151 h -4.644 c -0.641,0 -1.158,-0.51 -1.158,-1.151 v -28.14 c 0,-0.641 0.517,-1.156 1.158,-1.156 h 4.644 c 0.642,0 1.16,0.515 1.16,1.156 v 19.449 c 1.048,0.873 4.292,3.308 8.158,3.648 0.594,0.053 1.054,0.552 1.054,1.152 v 4.123 c 0,0.321 -0.127,0.622 -0.366,0.837 C 0.635,-0.091 0.316,0.03 0,0 m -36.249,-17.492 c -2.731,-0.258 -4.03,-1.506 -4.03,-3.91 0,-1.478 0.409,-3.974 3.116,-3.974 3.214,0 7.581,1.214 7.627,1.227 v 7.014 z m 13.671,7.684 v -20.19 c 0,-0.337 -0.148,-0.656 -0.396,-0.874 -0.258,-0.22 -0.594,-0.319 -0.921,-0.273 -2.362,0.333 -3.487,1.072 -4.605,1.929 -0.047,-0.019 -5.275,-2.13 -9.944,-2.13 -5.624,0 -8.851,3.551 -8.851,9.754 0,6.06 2.952,8.74 10.195,9.28 l 7.564,0.609 v 1.835 c 0,2.323 -1.38,3.66 -3.785,3.66 -3.312,0 -8.04,-0.389 -10.562,-0.615 -0.314,-0.034 -0.634,0.068 -0.873,0.279 -0.233,0.204 -0.379,0.506 -0.39,0.82 l -0.151,3.86 c -0.024,0.589 0.396,1.1 0.972,1.187 2.253,0.359 7.866,1.177 11.371,1.177 7.081,0 10.376,-3.278 10.376,-10.308 M -119.191,4.71 h -2.545 c -2.841,0 -4.459,-0.212 -5.279,-0.378 V -7.696 c 1.358,-0.095 3.97,-0.234 7.486,-0.195 4.536,0.046 7.35,2.456 7.35,6.279 0,3.055 -1.842,6.322 -7.012,6.322 m 14.634,-33.768 c 0.155,-0.355 0.12,-0.766 -0.088,-1.097 -0.216,-0.33 -0.579,-0.525 -0.972,-0.525 h -5.398 c -0.454,0 -0.874,0.271 -1.053,0.688 l -6.913,15.553 c -3.439,0.024 -6.423,0.207 -8.034,0.32 v -15.405 c 0,-0.641 -0.514,-1.156 -1.153,-1.156 h -4.827 c -0.642,0 -1.159,0.515 -1.159,1.156 V 9.489 c 0,0.59 0.442,1.084 1.03,1.149 6.193,0.7 11.146,0.772 12.984,0.772 0.634,0 0.972,-0.004 0.972,-0.004 11.879,0 14.377,-7.016 14.377,-12.894 0,-4.909 -2.346,-8.457 -7.167,-10.848 z M 30.94,-0.68 c -0.213,0.284 -0.551,0.447 -0.913,0.447 h -4.512 c -0.524,0 -0.977,-0.351 -1.118,-0.856 l -6.051,-22.816 h -0.463 l -6.057,22.816 c -0.135,0.505 -0.593,0.856 -1.119,0.856 H 6.202 C 5.841,-0.233 5.504,-0.396 5.282,-0.68 5.066,-0.965 4.99,-1.331 5.078,-1.675 l 6.665,-25.586 c 0.331,-1.27 1.504,-3.419 3.827,-3.419 h 1.292 c -0.111,-0.427 -0.232,-0.885 -0.361,-1.278 l -0.059,-0.194 c -0.361,-1.179 -0.904,-2.964 -4.195,-2.964 l -5.766,0.355 c -0.326,0.025 -0.645,-0.092 -0.873,-0.325 -0.238,-0.235 -0.369,-0.553 -0.352,-0.88 l 0.141,-3.02 c 0.023,-0.509 0.381,-0.941 0.881,-1.066 1.7,-0.42 4.943,-0.91 7.611,-1.013 0.127,-0.008 0.243,-0.008 0.366,-0.008 4.349,0 7.299,2.815 8.785,8.354 1.73,6.486 3.89,14.832 5.466,20.926 0.715,2.744 1.329,5.109 1.772,6.792 l 0.868,3.32 c 0.092,0.35 0.011,0.716 -0.206,1.001 M -79.994,-15.304 c 0,6.811 -1.851,9.458 -6.591,9.458 -4.913,0 -6.654,-2.473 -6.654,-9.458 0,-6.332 1.058,-9.758 6.654,-9.758 5.509,0 6.591,3.577 6.591,9.758 m 7.075,0 c 0,-11.092 -4.216,-16.042 -13.666,-16.042 -9.496,0 -13.732,4.95 -13.732,16.042 0,10.93 4.236,15.804 13.732,15.804 9.322,0 13.666,-5.017 13.666,-15.804 m 21.956,-10.432 0.199,-3.826 c 0.028,-0.572 -0.373,-1.085 -0.938,-1.192 -1.618,-0.299 -3.843,-0.662 -5.236,-0.662 -7.015,0 -9.152,2.685 -9.152,11.473 v 13.427 h -2.689 c -0.641,0 -1.159,0.52 -1.159,1.16 v 3.972 c 0,0.641 0.518,1.151 1.159,1.151 h 2.689 V 4.49 c 0,0.537 0.361,1.001 0.877,1.126 l 4.648,1.132 c 0.344,0.082 0.706,0.006 0.986,-0.212 0.278,-0.223 0.447,-0.554 0.447,-0.909 v -5.86 h 7.078 c 0.644,0 1.155,-0.51 1.155,-1.151 v -3.972 c 0,-0.64 -0.511,-1.16 -1.155,-1.16 h -7.078 v -12.448 c 0,-4.308 0.152,-5.8 3.172,-5.8 1.114,0 2.855,0.08 3.792,0.125 0.623,0.014 1.178,-0.455 1.205,-1.097"></path></g><g transform="translate(216.2026,90.2168)" id="g24"><path id="path26" d="M 0,0 0.186,-0.318 0.87,-1.5 2.29,-0.754 c 0.132,0.066 0.208,0.231 0.233,0.436 C 2.55,0.323 2.087,1.191 1.415,0.787 0.891,0.512 0.572,0.323 0,0 M -1.481,-0.318 -1.856,0.355 C -0.872,0.979 0.186,1.521 1.207,2.067 2.407,2.729 4.102,1.123 3.983,-0.318 3.96,-0.572 3.89,-0.802 3.738,-1.035 L 6.194,-2.822 C 5.732,-3.04 5.382,-3.225 4.829,-3.464 l -2.15,1.572 -1.187,-0.635 1.264,-2.09 C 2.267,-4.929 1.969,-5.123 1.398,-5.455 Z m 32.469,-67.36 2.237,-6.387 c 0.435,0.151 0.902,0.283 1.343,0.477 l -2.171,6.358 c -0.594,-0.203 -0.869,-0.284 -1.409,-0.448 m -8.944,-6.028 -0.524,1.292 -0.53,1.398 -0.46,-1.398 -0.454,-1.377 z m 0.884,1.292 1.464,-3.549 c -0.478,-0.02 -0.924,-0.069 -1.353,-0.118 l -0.451,1.146 -2.925,-0.081 -0.335,-1.198 c -0.468,0.04 -0.905,0.054 -1.368,0.054 l 1.261,3.746 0.899,2.843 0.043,0.09 1.492,0.066 0.076,-0.179 z m 7.345,74.656 1.512,-0.488 c 0.414,-0.119 0.96,0.529 0.96,1.094 0,0.269 -0.094,0.507 -0.453,0.586 -0.56,0.217 -0.942,0.313 -1.552,0.467 L 30.428,2.848 Z m -0.927,-3.531 c -0.542,0.158 -0.943,0.224 -1.539,0.394 l 1.098,3.743 0.803,2.668 C 30.865,5.228 31.965,4.854 33.065,4.495 33.688,4.303 34.022,3.598 34.086,2.848 34.127,1.829 33.621,0.72 32.591,0.489 l 0.4,-3.016 c -0.483,0.2 -0.84,0.35 -1.375,0.559 l -0.35,2.637 -1.291,0.396 z M 8.792,-69.204 c -0.041,0.189 -0.118,0.342 -0.35,0.448 l -1.694,0.624 -0.382,-1.072 -0.137,-0.39 -0.01,-0.025 1.544,-0.578 c 0.423,-0.188 0.832,0.189 0.979,0.603 0.05,0.113 0.093,0.254 0.05,0.39 m 1.269,0 v -0.367 c -0.104,-0.902 -0.715,-1.817 -1.706,-1.932 l 0.23,-3.148 c -0.461,0.106 -0.98,0.258 -1.47,0.467 l -0.053,2.961 -1.33,0.569 -1.079,-2.614 c -0.436,0.145 -0.871,0.284 -1.298,0.493 l 1.367,3.181 0.163,0.39 1.112,2.624 3.029,-1.168 c 0.674,-0.242 0.984,-0.841 1.035,-1.456 m 19.325,0.956 c -1.966,-0.431 -3.48,-0.79 -5.432,-1.092 l 0.181,-1.133 c 0.722,0.115 1.381,0.2 2.144,0.296 l 0.984,-5.456 1.447,0.273 -1.174,5.441 c 0.744,0.185 1.431,0.373 2.172,0.545 z m 7.389,63.839 1.461,2.814 3.944,1.833 C 41.765,0.535 41.317,0.743 40.9,1.018 L 38.184,-0.22 37.682,2.729 c -0.566,0.269 -0.907,0.388 -1.497,0.626 l 0.789,-4.289 -1.463,-2.78 z m 14.789,-1.722 c -0.622,0.762 -1.654,0.649 -1.951,0.118 l -4.59,-4.612 c -0.673,-0.7 -0.607,-1.724 0.089,-2.222 6.929,-7.67 9.824,-17.218 7.552,-29.04 -0.051,-0.774 0.437,-1.398 1.042,-1.572 l 6.347,-1.841 c 0.845,-0.239 1.386,0.275 1.567,0.998 3.265,14.555 -1.207,28.864 -10.056,38.171 m 7.342,-42.56 -6.352,2.169 c -0.333,0.123 -1.199,0.123 -1.653,-0.994 -5.131,-12.302 -17.072,-20.723 -30.9,-20.723 -13.846,0 -26.009,8.614 -30.919,20.915 -0.365,0.925 -1.257,0.925 -1.595,0.802 l -6.317,-2.169 c -0.686,-0.247 -1.098,-0.855 -0.738,-1.733 6.205,-15.836 21.636,-27.015 39.569,-27.015 17.926,0 33.427,11.256 39.654,27.082 0.322,0.828 -0.068,1.419 -0.749,1.666 m -78.772,3.391 6.337,1.841 c 0.593,0.174 1.082,0.798 1.035,1.572 -2.275,11.802 0.615,21.37 7.534,29.04 0.7,0.498 0.774,1.522 0.105,2.222 l -4.606,4.631 c -0.448,0.512 -1.261,0.512 -1.96,-0.2 -8.829,-9.292 -13.286,-23.553 -10.016,-38.133 0.181,-0.698 0.733,-1.212 1.571,-0.973 m 63.569,29.505 c 0.018,0.283 -0.156,0.64 -0.551,1.029 -5.073,5.366 -10.283,8.368 -17.429,10.067 -0.401,0.104 -0.866,0.198 -1.176,-0.076 -0.32,-0.256 -0.412,-0.75 -0.347,-1.491 l 1.177,-16.533 c 0.038,-0.625 0.321,-1.121 0.738,-1.374 0.458,-0.26 1.007,-0.211 1.576,0.063 l 14.889,7.185 c 0.477,0.232 1.021,0.484 1.123,0.994 0,0.031 0.018,0.072 0,0.136 m 3.01,-29.549 c 0.442,-0.287 0.956,-0.634 1.421,-0.473 0.316,0.096 0.588,0.443 0.764,1.067 2.084,7.066 2.084,13.103 0,20.086 -0.129,0.438 -0.333,0.891 -0.699,1.055 -0.372,0.133 -0.838,-0.021 -1.507,-0.474 l -13.655,-9.284 c -0.529,-0.355 -0.798,-0.84 -0.798,-1.34 0,-0.499 0.269,-0.983 0.798,-1.333 z M 24.507,-64.558 c 0.251,-0.199 0.665,-0.257 1.3,-0.098 7.103,1.705 12.313,4.715 17.39,10.043 0.302,0.351 0.635,0.712 0.536,1.112 -0.093,0.384 -0.42,0.731 -1.112,1.058 l -14.893,7.227 c -0.565,0.266 -1.114,0.266 -1.568,0.028 -0.437,-0.275 -0.704,-0.744 -0.745,-1.397 L 24.211,-63.07 c -0.011,-0.541 -0.076,-1.156 0.296,-1.488 m -4.506,19.095 c 5.879,0 10.66,4.772 10.66,10.652 0,5.879 -4.781,10.658 -10.66,10.68 -5.878,0 -10.655,-4.801 -10.655,-10.68 0,-5.88 4.777,-10.652 10.655,-10.652 m -23.423,-8.314 c 0,-0.282 0.192,-0.634 0.551,-1.008 5.121,-5.386 10.306,-8.383 17.427,-10.055 0.456,-0.137 0.902,-0.205 1.218,0.042 0.322,0.24 0.414,0.734 0.36,1.514 0,0.024 -1.211,16.53 -1.211,16.53 -0.052,0.626 -0.288,1.103 -0.726,1.354 -0.445,0.261 -0.997,0.261 -1.591,-0.009 L -2.248,-52.64 c -0.517,-0.241 -1.08,-0.514 -1.157,-1 0,-0.031 -0.017,-0.095 -0.017,-0.137 m -0.215,37.719 c 0.062,-0.498 0.628,-0.752 1.123,-0.984 l 14.869,-7.224 c 0.592,-0.283 1.141,-0.283 1.589,-0.049 0.419,0.274 0.691,0.75 0.729,1.383 l 1.201,16.494 c 0.065,0.798 -0.047,1.264 -0.335,1.509 -0.313,0.271 -0.778,0.194 -1.226,0.112 -7.127,-1.714 -12.321,-4.725 -17.439,-10.064 -0.414,-0.468 -0.606,-0.86 -0.511,-1.177 m -2.986,-8.134 c -0.486,0.314 -1.004,0.673 -1.427,0.485 -0.345,-0.104 -0.596,-0.466 -0.777,-1.053 -2.067,-7.091 -2.067,-13.105 0,-20.106 0.14,-0.455 0.297,-0.909 0.712,-1.024 0.339,-0.141 0.839,0 1.492,0.45 l 13.644,9.296 c 0.507,0.341 0.815,0.824 0.815,1.311 0,0.528 -0.308,0.992 -0.815,1.349 z m -0.299,20.648 4.408,-4.91 c 0.616,-0.662 1.293,-0.581 2.184,0.116 5.57,4.368 12.716,6.953 20.331,6.953 7.621,0 14.772,-2.575 20.395,-6.953 0.88,-0.65 1.538,-0.778 2.184,-0.116 l 4.41,4.91 c 0.499,0.542 0.499,1.291 -0.458,2.091 -7.393,5.756 -16.517,9.308 -26.55,9.308 -9.972,0 -19.228,-3.552 -26.489,-9.334 -0.95,-0.774 -0.908,-1.523 -0.415,-2.065 M 73.7,-34.851 c 0,-0.625 -0.028,-1.254 -0.098,-1.755 l -0.018,-0.135 -0.144,-0.075 c -2.282,-1.358 -5.23,-2.131 -8.187,-2.212 -0.07,-0.375 -0.391,-3.045 -0.446,-3.421 2.757,-0.795 5.429,-2.301 7.293,-4.227 l 0.076,-0.12 v -0.122 c -0.146,-1.051 -0.519,-2.461 -0.931,-3.377 l -0.048,-0.143 -0.134,-0.022 c -2.585,-0.745 -5.63,-0.716 -8.448,-0.019 -0.134,-0.35 -1.176,-2.832 -1.282,-3.192 2.47,-1.561 4.653,-3.706 5.881,-5.996 l 0.065,-0.128 -0.04,-0.134 c -0.386,-0.911 -1.107,-2.23 -1.753,-3.022 l -0.069,-0.119 h -0.164 c -2.638,-0.031 -5.585,0.752 -8.157,2.184 -0.234,-0.307 -1.951,-2.576 -2.184,-2.882 2.026,-2.087 3.563,-4.733 4.186,-7.343 l 0.04,-0.136 -0.075,-0.095 c -0.588,-0.799 -1.671,-1.857 -2.456,-2.491 l -0.092,-0.081 -0.195,0.038 c -2.538,0.677 -5.221,2.214 -7.306,4.229 -0.31,-0.233 -2.438,-1.896 -2.755,-2.133 1.363,-2.496 2.191,-5.368 2.191,-7.963 v -0.361 l -0.158,-0.09 c -0.785,-0.632 -2.091,-1.388 -3.022,-1.769 l -0.093,-0.039 -0.154,0.05 c -2.286,1.331 -4.475,3.501 -5.972,5.989 -0.361,-0.16 -2.952,-1.268 -3.306,-1.423 0.354,-1.386 0.564,-2.836 0.604,-4.269 0,-1.447 -0.25,-2.893 -0.604,-4.2 l -0.019,-0.13 -0.139,-0.076 c -0.866,-0.361 -2.329,-0.723 -3.348,-0.901 l -0.156,-0.022 -0.088,0.11 c -1.968,1.872 -3.475,4.534 -4.267,7.316 -0.35,-0.026 -3.035,-0.39 -3.413,-0.469 -0.047,-2.917 -0.847,-5.876 -2.236,-8.168 l -0.075,-0.12 -0.158,-0.02 c -0.932,-0.142 -2.425,-0.142 -3.442,0 l -0.125,0.02 -0.089,0.12 c -1.344,2.292 -2.149,5.251 -2.213,8.168 -0.401,0.039 -3.229,0.443 -3.622,0.469 -0.773,-2.764 -2.294,-5.412 -4.209,-7.307 l -0.103,-0.097 -0.158,0.024 c -1.05,0.154 -2.429,0.558 -3.353,0.941 l -0.112,0.055 -0.046,0.118 c -0.391,1.303 -0.592,2.764 -0.592,4.211 0,1.419 0.201,2.841 0.562,4.227 -0.361,0.155 -2.807,1.146 -3.16,1.305 -1.514,-2.53 -3.698,-4.728 -6.004,-6.01 l -0.121,-0.069 -0.148,0.039 c -0.955,0.427 -2.212,1.149 -3.026,1.759 l -0.1,0.1 v 0.274 c 0,2.627 0.8,5.52 2.171,8.05 -0.303,0.235 -2.585,1.969 -2.898,2.204 -2.091,-2.015 -4.752,-3.534 -7.324,-4.192 l -0.133,-0.041 -0.14,0.091 c -0.787,0.635 -1.799,1.657 -2.435,2.46 l -0.086,0.139 0.038,0.135 c 0.684,2.594 2.224,5.241 4.226,7.299 -0.228,0.31 -1.956,2.549 -2.2,2.884 -2.544,-1.426 -5.519,-2.251 -8.157,-2.183 h -0.141 l -0.091,0.091 c -0.617,0.816 -1.355,2.12 -1.752,3.045 l -0.06,0.138 0.06,0.123 c 1.328,2.326 3.499,4.472 5.978,5.959 -0.161,0.381 -1.218,2.88 -1.396,3.233 -2.818,-0.702 -5.881,-0.723 -8.459,0 l -0.125,0.039 -0.076,0.116 c -0.347,0.869 -0.73,2.332 -0.888,3.362 l -0.028,0.16 0.093,0.122 c 1.875,1.911 4.51,3.424 7.331,4.259 -0.032,0.394 -0.446,3.236 -0.488,3.629 -2.942,0.039 -5.902,0.799 -8.204,2.166 l -0.115,0.076 -0.011,0.16 c -0.065,0.477 -0.082,1.101 -0.082,1.734 0,0.617 0.017,1.223 0.082,1.739 l 0.011,0.158 0.115,0.064 c 2.302,1.357 5.262,2.142 8.204,2.187 0.062,0.388 0.411,3.15 0.456,3.523 -2.789,0.799 -5.45,2.326 -7.34,4.231 l -0.079,0.093 0.027,0.147 c 0.121,1.063 0.523,2.482 0.916,3.363 l 0.045,0.128 0.138,0.04 c 2.545,0.75 5.624,0.729 8.454,0.035 0.157,0.344 1.189,2.835 1.345,3.21 -2.498,1.511 -4.692,3.661 -5.996,5.983 l -0.065,0.148 0.065,0.139 c 0.409,0.931 1.147,2.193 1.726,2.985 l 0.095,0.119 h 0.159 c 2.671,0.04 5.616,-0.777 8.157,-2.185 0.238,0.285 1.97,2.629 2.207,2.941 -2.017,2.1 -3.543,4.733 -4.202,7.342 l -0.028,0.112 0.055,0.115 c 0.646,0.809 1.715,1.86 2.498,2.476 l 0.125,0.078 0.118,-0.023 c 2.625,-0.671 5.271,-2.233 7.332,-4.237 0.3,0.238 2.364,1.829 2.67,2.061 -1.42,2.484 -2.213,5.38 -2.213,7.953 v 0.388 l 0.131,0.09 c 0.772,0.605 2.082,1.356 3.016,1.736 l 0.098,0.062 0.157,-0.068 c 2.298,-1.3 4.46,-3.476 5.973,-5.967 0.362,0.137 3.045,1.302 3.412,1.449 -0.35,1.388 -0.569,2.826 -0.547,4.252 0,1.482 0.18,2.893 0.57,4.194 l 0.019,0.161 0.14,0.036 c 0.865,0.363 2.309,0.752 3.324,0.907 l 0.163,0.021 0.117,-0.102 c 1.914,-1.862 3.44,-4.527 4.246,-7.339 0.391,0.041 3.212,0.396 3.589,0.464 0.061,2.895 0.853,5.852 2.236,8.149 l 0.059,0.12 0.145,0.04 c 1.01,0.119 2.498,0.119 3.475,0 l 0.13,-0.04 0.081,-0.12 c 1.391,-2.297 2.196,-5.254 2.196,-8.122 0.423,-0.095 3.178,-0.45 3.571,-0.491 0.823,2.812 2.337,5.457 4.264,7.326 l 0.087,0.094 0.128,-0.039 c 1.05,-0.116 2.471,-0.505 3.383,-0.904 l 0.112,-0.045 0.045,-0.158 C 36.185,15 36.374,13.596 36.374,12.137 36.349,10.698 36.14,9.247 35.79,7.855 c 0.35,-0.142 3.029,-1.262 3.402,-1.419 1.484,2.491 3.621,4.65 5.944,5.967 l 0.134,0.068 0.139,-0.062 c 0.921,-0.391 2.209,-1.131 3.001,-1.754 l 0.117,-0.072 v -0.362 c 0,-2.639 -0.818,-5.522 -2.197,-7.979 0.296,-0.232 2.509,-1.962 2.841,-2.218 2.084,2.025 4.733,3.574 7.344,4.216 l 0.116,0.063 0.114,-0.121 C 57.531,3.598 58.591,2.496 59.191,1.706 L 59.302,1.589 59.256,1.456 c -0.665,-2.61 -2.237,-5.259 -4.24,-7.331 0.234,-0.319 1.899,-2.513 2.155,-2.829 2.596,1.396 5.532,2.196 8.192,2.147 h 0.123 l 0.086,-0.117 C 66.218,-7.5 66.959,-8.78 67.32,-9.66 l 0.086,-0.169 -0.086,-0.128 c -1.322,-2.303 -3.494,-4.437 -5.987,-5.958 0.152,-0.378 1.166,-2.879 1.359,-3.229 2.794,0.704 5.867,0.719 8.412,0 l 0.151,-0.03 0.059,-0.147 c 0.355,-0.884 0.769,-2.321 0.904,-3.378 l 0.021,-0.129 -0.104,-0.104 c -1.869,-1.937 -4.53,-3.452 -7.328,-4.243 0.055,-0.385 0.404,-3.115 0.47,-3.503 2.945,-0.064 5.881,-0.852 8.163,-2.203 l 0.144,-0.086 0.018,-0.139 c 0.07,-0.497 0.098,-1.101 0.098,-1.745 m -30.06,-25.32 2.795,-3.013 -4.691,1.384 c -0.391,-0.297 -0.653,-0.4 -0.998,-0.701 l 4.082,-5.489 c 0.349,0.272 0.709,0.601 1.035,0.88 l -2.477,3.302 4.738,-1.428 c 0.326,0.283 0.791,0.602 1.11,1.003 l -4.725,4.997 c -0.253,-0.273 -0.543,-0.632 -0.869,-0.935 m -3.244,-8.027 c 0,0.404 -0.103,0.765 -0.296,1.113 -0.56,1.044 -1.888,1.38 -2.922,0.786 -0.73,-0.391 -1.102,-1.134 -1.102,-1.899 0.023,-0.35 0.109,-0.742 0.314,-1.072 0.058,-0.104 0.128,-0.211 0.232,-0.324 0.651,-0.776 1.797,-0.957 2.677,-0.445 0.241,0.12 0.435,0.277 0.59,0.445 0.325,0.39 0.507,0.915 0.507,1.396 m 0.761,1.68 c 0.287,-0.503 0.427,-1.086 0.45,-1.68 0,-0.465 -0.099,-0.941 -0.29,-1.373 -0.315,-0.626 -0.78,-1.186 -1.428,-1.56 -1.577,-0.922 -3.618,-0.372 -4.575,1.251 -0.034,0.092 -0.077,0.195 -0.14,0.309 -0.192,0.432 -0.286,0.908 -0.326,1.373 0.04,1.195 0.623,2.297 1.693,2.918 1.603,0.908 3.673,0.365 4.616,-1.238 m 7.061,8.98 0.796,-1.259 0.728,-1.269 0.983,1.269 0.257,0.315 z m -0.765,1.539 6.718,-2.207 c -0.156,-0.199 -0.282,-0.391 -0.424,-0.591 -0.116,-0.151 -0.257,-0.304 -0.349,-0.501 l -1.177,0.424 -1.834,-2.291 0.67,-1.05 c -0.274,-0.312 -0.582,-0.65 -0.931,-0.995 l -2.661,4.413 -0.984,1.626 z m 7.442,0.994 -4.935,2.718 -0.633,-1.137 5.923,-3.306 2.281,4.09 -1.016,0.545 z m -39.021,-14.265 -0.492,-4.107 -1.973,4.504 c -0.462,0.091 -0.751,0.21 -1.216,0.284 l -1.549,-6.643 c 0.478,-0.128 0.938,-0.18 1.432,-0.265 l 0.829,4.081 2,-4.547 c 0.454,-0.069 0.969,-0.211 1.496,-0.197 l 0.742,6.862 c -0.389,0.021 -0.851,-0.042 -1.269,0.028 m -0.229,74.511 0.594,-5.503 1.445,0.151 -0.566,5.463 2.187,0.135 -0.084,1.226 C 16.78,6.573 15.774,6.474 13.358,6.113 L 13.52,4.949 Z M 22.34,2.242 C 23.074,2.207 23.755,2.125 24.443,2.027 L 24.081,3.434 23.627,4.883 22.946,3.434 Z m -1.117,-2.289 c -0.564,0.005 -0.825,0.005 -1.379,0.005 l 1.676,3.476 1.519,3.159 1.508,-0.157 0.792,-3.002 1.095,-4.034 c -0.507,0.094 -0.901,0.17 -1.38,0.199 l -0.39,1.265 C 23.669,1.018 22.769,1.065 21.846,1.106 Z M 7.228,1.615 c 0.091,-1.196 1.152,-2.069 2.303,-1.97 1.137,0.116 1.986,1.024 1.986,2.167 0.04,0.057 0,0.122 0,0.198 C 11.418,3.213 10.383,4.056 9.183,3.944 8.043,3.859 7.186,2.956 7.228,1.812 Z M 5.997,1.496 v 0.316 c -0.035,1.74 1.299,3.173 3.05,3.312 1.852,0.18 3.497,-1.18 3.654,-3.043 V 1.812 c 0,-1.736 -1.313,-3.222 -3.094,-3.385 -1.799,-0.16 -3.452,1.196 -3.61,3.069 M 20.12,-41.245 c 3.507,0 6.393,2.882 6.393,6.394 0,2.917 -2.03,5.454 -4.823,6.151 -0.035,0.287 -0.112,1.621 -0.112,1.621 h -3.224 c 0,0 -0.075,-1.449 -0.101,-1.737 -2.677,-0.812 -4.482,-3.253 -4.482,-6.035 0,-3.512 2.883,-6.394 6.349,-6.394 m -0.119,-3.179 c -5.288,0 -9.607,4.337 -9.607,9.613 0,5.313 4.319,9.628 9.607,9.628 5.321,0 9.6,-4.315 9.6,-9.628 0,-5.299 -4.301,-9.613 -9.6,-9.613 M 1.077,-65.357 c 0.915,-0.498 1.811,-1.018 2.813,-1.492 l 0.6,0.994 c -1.387,0.717 -2.688,1.536 -3.855,2.344 l -3.826,-5.614 c 1.451,-0.961 2.777,-1.764 4.268,-2.624 l 0.617,0.992 -3.086,1.817 1.042,1.465 2.044,-1.229 0.596,0.956 c -0.657,0.359 -1.341,0.777 -2.058,1.215 z m -7.65,8.328 -3.145,-2.716 1.603,4.657 c -0.284,0.399 -0.415,0.677 -0.712,1.044 l -5.636,-3.824 c 0.252,-0.379 0.561,-0.729 0.828,-1.119 l 3.389,2.348 -1.59,-4.693 c 0.275,-0.311 0.553,-0.785 0.942,-1.102 l 5.215,4.473 c -0.29,0.309 -0.638,0.584 -0.894,0.932 m -3.725,5.415 -5.805,-3.391 c 0.208,-0.406 0.431,-0.883 0.685,-1.275 l 5.818,3.399 c -0.284,0.513 -0.444,0.786 -0.698,1.267 m 7.172,-10.562 -3.579,-4.245 -1.114,0.967 3.699,4.122 c -0.586,0.543 -1.034,1.031 -1.601,1.537 l 0.824,0.827 c 1.408,-1.333 2.649,-2.364 4.204,-3.617 l -0.714,-0.911 c -0.566,0.445 -1.149,0.87 -1.719,1.32"></path></g></g></g></g><g aria-label="D&#xFC;sseldorf - International" id="text2304" style="font-weight:300;font-size:43.7719px;font-family:'Open Sans';-inkscape-font-specification:'Open Sans Light';letter-spacing:0px;fill:#0e0e10;stroke:#0e0e10;stroke-width:1.0943"><g id="path22648"><path style="color:#000000;-inkscape-font-specification:'Open Sans Light';stroke:none;-inkscape-stroke:none" d="m -243.38551,138.55095 q 0,7.86526 -4.12499,11.90476 -4.12499,4.01812 -12.11849,4.01812 h -7.48055 v -31.24732 h 8.44233 q 7.48055,0 11.37044,3.91126 3.91126,3.91126 3.91126,11.41318 z m -2.37241,0.0855 q 0,-6.71112 -3.41968,-10.08806 -3.3983,-3.3983 -10.00256,-3.3983 h -5.74934 v 27.40018 h 5.17227 q 13.99931,0 13.99931,-13.91382 z" id="path22721"></path><path style="color:#000000;-inkscape-font-specification:'Open Sans Light';stroke:none;-inkscape-stroke:none" d="m -267.65625,122.67969 v 32.34179 h 8.02734 c 5.42068,0 9.62347,-1.37182 12.5,-4.17382 l 0.002,-0.002 c 2.87682,-2.8172 4.28906,-6.95577 4.28906,-12.29492 0,-5.09516 -1.34043,-9.0677 -4.07031,-11.79883 -2.71692,-2.73184 -6.67738,-4.07226 -11.75977,-4.07226 z m 1.09375,1.09375 h 7.89453 c 4.89167,0 8.51283,1.26683 10.98242,3.75 h 0.002 v 0.002 c 2.48382,2.48383 3.75,6.1192 3.75,11.02539 0,5.14785 -1.33583,8.94488 -3.95899,11.51367 -2.62345,2.55549 -6.49901,3.86133 -11.73633,3.86133 h -6.93359 z m 1.08594,0.83008 v 28.49414 h 5.71875 c 4.75706,0 8.42414,-1.19114 10.88672,-3.63868 2.46257,-2.44753 3.66015,-6.09257 3.66015,-10.82226 0,-4.56509 -1.1734,-8.09602 -3.58008,-10.47461 -2.39084,-2.39085 -5.89198,-3.55859 -10.38867,-3.55859 z m 1.09375,1.09375 h 5.20312 c 4.30899,0 7.47502,1.09806 9.61524,3.23828 h 0.002 v 0.002 c 2.15084,2.12396 3.25781,5.31808 3.25781,9.69922 0,4.54618 -1.13403,7.85647 -3.33789,10.04687 -2.20386,2.19041 -5.53944,3.32032 -10.11523,3.32032 h -4.625 z" id="path22723"></path></g><g id="path22650"><path style="color:#000000;-inkscape-font-specification:'Open Sans Light';stroke:none;-inkscape-stroke:none" d="m -234.85769,131.24138 v 15.04659 q 0,3.50517 1.47474,5.10815 1.47474,1.5816 4.57382,1.5816 4.14636,0 6.09131,-2.09455 1.96631,-2.09456 1.96631,-6.81799 v -12.8238 h 2.09455 v 23.23245 h -1.79533 l -0.38471,-3.20595 h -0.12824 q -2.26554,3.63341 -8.05762,3.63341 -7.92938,0 -7.92938,-8.48508 v -15.17483 z m 1.75259,-6.45464 q 0,-0.98316 0.32059,-1.41062 0.34197,-0.42746 1.02591,-0.42746 1.36787,0 1.36787,1.83808 0,1.83807 -1.36787,1.83807 -1.3465,0 -1.3465,-1.83807 z m 8.14311,0 q 0,-0.98316 0.3206,-1.41062 0.34196,-0.42746 1.0259,-0.42746 1.36787,0 1.36787,1.83808 0,1.83807 -1.36787,1.83807 -1.3465,0 -1.3465,-1.83807 z" id="path22727"></path><path style="color:#000000;-inkscape-font-specification:'Open Sans Light';stroke:none;-inkscape-stroke:none" d="m -231.75781,122.40234 c -0.56995,0 -1.11399,0.2089 -1.45313,0.63282 l -0.006,0.006 -0.006,0.006 c -0.33453,0.44605 -0.42968,1.02532 -0.42968,1.74023 0,0.67949 0.11617,1.25455 0.44336,1.70117 0.32718,0.44663 0.87785,0.6836 1.45117,0.6836 0.57849,0 1.13256,-0.2332 1.46484,-0.67969 0.33228,-0.4465 0.44922,-1.02453 0.44922,-1.70508 0,-0.68056 -0.11694,-1.25858 -0.44922,-1.70508 -0.33228,-0.4465 -0.88635,-0.67969 -1.46484,-0.67969 z m 8.14258,0 c -0.56995,0 -1.114,0.20889 -1.45313,0.63282 l -0.006,0.006 -0.006,0.006 c -0.33454,0.44605 -0.42969,1.02532 -0.42969,1.74023 0,0.67949 0.11618,1.25455 0.44336,1.70117 0.32718,0.44663 0.87786,0.6836 1.45118,0.6836 0.57849,0 1.13256,-0.2332 1.46484,-0.67969 0.33228,-0.4465 0.44922,-1.02453 0.44922,-1.70508 0,-0.68056 -0.11694,-1.25858 -0.44922,-1.70508 -0.33228,-0.4465 -0.88635,-0.67969 -1.46484,-0.67969 z m -8.14258,1.09375 c 0.33341,0 0.46226,0.0721 0.58594,0.23829 0.12367,0.16619 0.23437,0.5079 0.23437,1.05273 0,0.54483 -0.1107,0.88459 -0.23437,1.05078 -0.12368,0.16619 -0.25252,0.24024 -0.58594,0.24024 -0.32435,0 -0.44671,-0.0703 -0.56836,-0.23633 -0.12165,-0.16607 -0.23242,-0.5088 -0.23242,-1.05469 0,-0.58955 0.11654,-0.94267 0.20898,-1.07031 0.11596,-0.14248 0.25411,-0.22071 0.5918,-0.22071 z m 8.14258,0 c 0.33341,0 0.46225,0.0721 0.58593,0.23829 0.12368,0.16619 0.23438,0.5079 0.23438,1.05273 0,0.54483 -0.1107,0.88459 -0.23438,1.05078 -0.12368,0.16619 -0.25252,0.24024 -0.58593,0.24024 -0.32435,0 -0.44671,-0.0703 -0.56836,-0.23633 -0.12166,-0.16607 -0.23047,-0.5088 -0.23047,-1.05469 0,-0.59058 0.11646,-0.94522 0.20898,-1.07227 0.11569,-0.14136 0.2535,-0.21875 0.58985,-0.21875 z M -237.5,130.69336 v 15.72266 c 0,2.91357 0.68506,5.19115 2.13086,6.73828 1.4458,1.54712 3.605,2.29492 6.3457,2.29492 3.46563,0 6.07424,-1.0438 7.77539,-3.01758 l 0.31055,2.58984 h 2.82813 v -24.32812 h -3.18946 v 13.37109 c 0,3.07303 -0.64796,5.19662 -1.81836,6.44336 v 0.002 l -0.002,0.002 c -1.16471,1.25429 -3.01735,1.91797 -5.68945,1.91797 -1.97163,0 -3.31899,-0.49092 -4.17188,-1.4043 l -0.002,-0.002 c -0.84763,-0.92263 -1.32813,-2.4777 -1.32813,-4.73633 v -15.59375 h -0.54687 z m 1.0957,1.0957 h 1 v 14.49805 c 0,2.41351 0.50144,4.26362 1.61914,5.47851 v 0.002 l 0.002,0.002 c 1.11352,1.19422 2.81548,1.75586 4.97461,1.75586 2.85516,0 5.06162,-0.73047 6.49023,-2.26758 l 0.002,-0.002 c 1.45016,-1.54609 2.11133,-3.9678 2.11133,-7.19141 v -12.27539 h 1 v 22.13672 h -0.76172 l -0.38476,-3.20508 h -0.91797 l -0.16016,0.25782 c -1.39959,2.24462 -3.84677,3.375 -7.59375,3.375 -2.54554,0 -4.34955,-0.66604 -5.54687,-1.94727 -1.19732,-1.28123 -1.83399,-3.2471 -1.83399,-5.99023 z" id="path22729"></path></g><g id="path22652"><path style="color:#000000;-inkscape-font-specification:'Open Sans Light';stroke:none;-inkscape-stroke:none" d="m -196.47178,148.42527 q 0,3.12046 -2.3724,4.80893 -2.37241,1.66709 -6.7325,1.66709 -4.65931,0 -7.39506,-1.43199 v -2.28691 q 3.50518,1.75259 7.39506,1.75259 3.44105,0 5.21501,-1.13277 1.79534,-1.15415 1.79534,-3.05634 0,-1.75259 -1.432,-2.94948 -1.41061,-1.19688 -4.65931,-2.35103 -3.4838,-1.261 -4.89442,-2.15867 -1.41061,-0.91904 -2.1373,-2.05181 -0.7053,-1.15414 -0.7053,-2.79986 0,-2.60751 2.18004,-4.12499 2.20142,-1.51748 6.13405,-1.51748 3.76165,0 7.13858,1.41062 l -0.7908,1.92357 q -3.41968,-1.41062 -6.34778,-1.41062 -2.84261,0 -4.5097,0.94041 -1.66709,0.94041 -1.66709,2.60751 0,1.8167 1.28238,2.90672 1.30375,1.09003 5.0654,2.43653 3.14183,1.13277 4.57382,2.0518 1.43199,0.89767 2.1373,2.05181 0.72668,1.15414 0.72668,2.71437 z" id="path22733"></path><path style="color:#000000;-inkscape-font-specification:'Open Sans Light';stroke:none;-inkscape-stroke:none" d="m -204.08008,130.24609 c -2.69212,0 -4.85235,0.51523 -6.44531,1.61328 l -0.002,0.002 c -1.57397,1.0956 -2.41407,2.68339 -2.41407,4.57422 0,1.17531 0.25462,2.21582 0.78516,3.08398 l 0.004,0.006 0.002,0.006 c 0.53503,0.834 1.30828,1.56948 2.29883,2.21484 h 0.004 l 0.002,0.002 c 1.01463,0.64567 2.66257,1.36417 5.00195,2.21093 l 0.002,0.002 h 0.002 c 2.13311,0.75782 3.63972,1.53196 4.48828,2.25195 v 0.002 l 0.002,0.002 c 0.85384,0.71365 1.23633,1.50992 1.23633,2.52929 0,1.09599 -0.46305,1.90021 -1.54492,2.59571 -1.04745,0.66828 -2.68492,1.04687 -4.91797,1.04687 -2.51108,0 -4.88602,-0.56312 -7.15039,-1.69531 l -0.79297,-0.39649 v 3.50391 l 0.29492,0.15234 c 1.9369,1.01385 4.48618,1.4961 7.64844,1.4961 2.97646,0 5.33626,-0.56553 7.04687,-1.76758 h 0.002 v -0.002 c 1.71133,-1.21798 2.60351,-3.03494 2.60351,-5.25391 0,-1.12442 -0.26948,-2.14074 -0.8125,-3.00391 -0.52229,-0.85281 -1.29913,-1.59143 -2.30469,-2.22265 -1.02174,-0.65574 -2.56958,-1.34523 -4.68359,-2.10742 -2.48054,-0.88793 -4.14008,-1.7064 -4.89648,-2.33789 -0.74063,-0.62954 -1.08985,-1.40785 -1.08985,-2.49024 0,-0.92901 0.39779,-1.5719 1.38867,-2.13086 0.99549,-0.56155 2.40746,-0.86914 4.24219,-0.86914 1.8642,0 3.90978,0.44972 6.13867,1.36914 l 0.50586,0.20899 1.20703,-2.9336 -0.50195,-0.20898 c -2.31796,-0.96826 -4.77345,-1.45313 -7.34961,-1.45313 z m 0,1.09375 c 2.24982,0 4.37228,0.4328 6.4043,1.20899 l -0.37109,0.90429 c -2.13,-0.81991 -4.15085,-1.2832 -6.03321,-1.2832 -1.95541,0 -3.55199,0.31744 -4.77929,1.00977 -1.2319,0.69491 -1.94532,1.7902 -1.94532,3.08398 0,1.33988 0.5054,2.50039 1.47461,3.32422 l 0.002,0.002 h 0.002 c 0.98277,0.82167 2.69943,1.62651 5.23242,2.53321 2.07339,0.74769 3.57578,1.42676 4.46289,1.99609 l 0.002,0.002 0.002,0.002 c 0.8995,0.56387 1.54373,1.19035 1.96093,1.87304 l 0.002,0.004 0.002,0.002 c 0.42522,0.67536 0.64258,1.46862 0.64258,2.42383 0,1.94164 -0.69071,3.32997 -2.14258,4.36328 -1.45252,1.01928 -3.57918,1.56446 -6.41406,1.56446 -2.90364,0 -5.15783,-0.45768 -6.84766,-1.27149 v -1.12109 c 2.18002,0.96216 4.4573,1.52148 6.84766,1.52148 2.35407,0 4.19187,-0.3772 5.50976,-1.21875 v -0.002 c 1.31191,-0.84337 2.04688,-2.07536 2.04688,-3.51563 0,-1.31648 -0.57093,-2.4852 -1.625,-3.36718 -1.03142,-0.87515 -2.63043,-1.66684 -4.82617,-2.44727 -2.30569,-0.83457 -3.92092,-1.55621 -4.78711,-2.10742 -0.88571,-0.57789 -1.53379,-1.20742 -1.9668,-1.88086 -0.40796,-0.66983 -0.62305,-1.49125 -0.62305,-2.50781 0,-1.58586 0.61256,-2.74808 1.94532,-3.67578 1.3422,-0.92465 3.27174,-1.41993 5.82226,-1.41993 z" id="path22735"></path></g><g id="path22654"><path style="color:#000000;-inkscape-font-specification:'Open Sans Light';stroke:none;-inkscape-stroke:none" d="m -176.03919,148.42527 q 0,3.12046 -2.37241,4.80893 -2.3724,1.66709 -6.73249,1.66709 -4.65931,0 -7.39506,-1.43199 v -2.28691 q 3.50517,1.75259 7.39506,1.75259 3.44105,0 5.21501,-1.13277 1.79533,-1.15415 1.79533,-3.05634 0,-1.75259 -1.43199,-2.94948 -1.41062,-1.19688 -4.65931,-2.35103 -3.4838,-1.261 -4.89442,-2.15867 -1.41062,-0.91904 -2.1373,-2.05181 -0.70531,-1.15414 -0.70531,-2.79986 0,-2.60751 2.18005,-4.12499 2.20142,-1.51748 6.13405,-1.51748 3.76165,0 7.13858,1.41062 l -0.7908,1.92357 q -3.41968,-1.41062 -6.34778,-1.41062 -2.84261,0 -4.5097,0.94041 -1.6671,0.94041 -1.6671,2.60751 0,1.8167 1.28238,2.90672 1.30376,1.09003 5.0654,2.43653 3.14183,1.13277 4.57382,2.0518 1.432,0.89767 2.1373,2.05181 0.72669,1.15414 0.72669,2.71437 z" id="path22739"></path><path style="color:#000000;-inkscape-font-specification:'Open Sans Light';stroke:none;-inkscape-stroke:none" d="m -183.64844,130.24609 c -2.69212,0 -4.85039,0.51523 -6.44336,1.61328 h -0.002 v 0.002 c -1.57397,1.0956 -2.41602,2.68339 -2.41602,4.57422 0,1.17531 0.25461,2.21582 0.78516,3.08398 l 0.004,0.006 0.004,0.006 c 0.53502,0.83401 1.30828,1.56948 2.29883,2.21484 h 0.002 l 0.002,0.002 c 1.01463,0.64567 2.66257,1.36417 5.00195,2.21093 l 0.002,0.002 h 0.002 c 2.13311,0.75782 3.63971,1.53196 4.48828,2.25195 l 0.002,0.002 0.002,0.002 c 0.85383,0.71365 1.23438,1.50992 1.23438,2.52929 0,1.09599 -0.4611,1.90021 -1.54297,2.59571 -1.04744,0.66828 -2.68687,1.04687 -4.91992,1.04687 -2.51109,0 -4.88603,-0.56313 -7.15039,-1.69531 l -0.79102,-0.39649 v 3.50391 l 0.29297,0.15234 c 1.9369,1.01385 4.48618,1.4961 7.64844,1.4961 2.97646,0 5.33626,-0.56553 7.04687,-1.76758 h 0.002 l 0.002,-0.002 c 1.71134,-1.21798 2.60156,-3.03494 2.60156,-5.25391 0,-1.12442 -0.26752,-2.14074 -0.81054,-3.00391 -0.52206,-0.85244 -1.29976,-1.59162 -2.30469,-2.22265 l -0.004,-0.002 c -1.02176,-0.65524 -2.56747,-1.34392 -4.67969,-2.10547 h -0.002 c -2.48054,-0.88793 -4.13812,-1.70639 -4.89453,-2.33789 -0.74063,-0.62954 -1.08984,-1.40785 -1.08984,-2.49024 0,-0.92901 0.39778,-1.5719 1.38867,-2.13086 0.99548,-0.56155 2.4055,-0.86914 4.24023,-0.86914 1.8642,0 3.90978,0.44972 6.13867,1.36914 l 0.50782,0.20899 1.20508,-2.9336 -0.50196,-0.20898 c -2.31796,-0.96826 -4.77345,-1.45313 -7.34961,-1.45313 z m 0,1.09375 c 2.24972,0 4.37236,0.43287 6.4043,1.20899 l -0.37109,0.90429 c -2.12989,-0.81984 -4.15093,-1.2832 -6.03321,-1.2832 -1.95541,0 -3.55004,0.31744 -4.77734,1.00977 -1.23191,0.69491 -1.94531,1.7902 -1.94531,3.08398 0,1.33988 0.50539,2.50039 1.47461,3.32422 l 0.002,0.002 h 0.002 c 0.98278,0.82167 2.69749,1.62651 5.23047,2.53321 v -0.002 c 2.07509,0.74817 3.57531,1.42842 4.46289,1.99805 l 0.004,0.002 0.002,0.002 c 0.89951,0.56387 1.54374,1.19035 1.96094,1.87304 l 0.002,0.004 0.002,0.002 c 0.42523,0.67535 0.64258,1.46863 0.64258,2.42383 0,1.94164 -0.6907,3.32997 -2.14258,4.36328 -1.45254,1.01988 -3.58027,1.56446 -6.41601,1.56446 -2.90452,0 -5.15769,-0.4572 -6.84766,-1.27149 v -1.12109 c 2.18041,0.96255 4.45681,1.52148 6.84766,1.52148 2.35407,0 4.19187,-0.3772 5.50976,-1.21875 l 0.002,-0.002 c 1.3119,-0.84337 2.04687,-2.07536 2.04687,-3.51563 0,-1.31741 -0.57342,-2.48694 -1.6289,-3.36914 -1.03184,-0.87458 -2.62917,-1.66526 -4.82422,-2.44531 l -0.002,-0.002 c -2.30081,-0.83294 -3.91269,-1.55091 -4.77929,-2.10157 l -0.002,-0.002 c -7.2e-4,-4.6e-4 -0.003,-0.001 -0.004,-0.002 -0.88365,-0.57676 -1.53011,-1.20698 -1.96289,-1.87891 -0.4087,-0.67016 -0.625,-1.49227 -0.625,-2.50976 0,-1.58586 0.61255,-2.74808 1.94531,-3.67578 1.34221,-0.92465 3.26979,-1.41993 5.82031,-1.41993 z" id="path22741"></path></g><g id="path22656"><path style="color:#000000;-inkscape-font-specification:'Open Sans Light';stroke:none;-inkscape-stroke:none" d="m -160.62926,154.90129 q -5.0654,0 -7.90801,-3.12046 -2.82124,-3.12045 -2.82124,-8.74155 0,-5.55698 2.73575,-8.89117 2.73574,-3.35556 7.37368,-3.35556 4.10362,0 6.47602,2.86398 2.3724,2.86398 2.3724,7.77977 v 1.70984 h -16.73506 q 0.0427,4.78755 2.2228,7.30957 2.20142,2.52201 6.28366,2.52201 1.98769,0 3.4838,-0.27785 1.51748,-0.27785 3.82576,-1.19689 v 1.92357 q -1.96631,0.85492 -3.63341,1.15415 -1.66709,0.32059 -3.67615,0.32059 z m -0.61982,-22.22792 q -3.35556,0 -5.38599,2.22279 -2.03044,2.20142 -2.37241,6.36916 h 14.36266 q 0,-4.0395 -1.75259,-6.30504 -1.75258,-2.28691 -4.85167,-2.28691 z" id="path22745"></path><path style="color:#000000;-inkscape-font-specification:'Open Sans Light';stroke:none;-inkscape-stroke:none" d="m -161.25,130.24609 c -3.22391,0 -5.87736,1.20224 -7.79687,3.55664 -1.91728,2.3378 -2.85938,5.44298 -2.85938,9.23633 0,3.83894 0.97246,6.90784 2.96289,9.10938 h 0.002 c 2.00403,2.19991 4.82322,3.30078 8.3125,3.30078 1.36778,0 2.62641,-0.11084 3.77735,-0.33203 h 0.002 c 1.16174,-0.20924 2.40946,-0.60746 3.74805,-1.18946 l 0.32812,-0.14257 v -3.08985 l -0.74804,0.29883 c -1.51818,0.60446 -2.76779,0.99313 -3.72266,1.16797 h -0.002 c -0.95464,0.17729 -2.08319,0.26758 -3.38282,0.26758 -2.60881,0 -4.51366,-0.77888 -5.87109,-2.33399 -1.25021,-1.44739 -1.90049,-3.6086 -2.01367,-6.40234 h 16.66015 v -2.25781 c 0,-3.36521 -0.81834,-6.10116 -2.49804,-8.12891 -1.68047,-2.02867 -4.03541,-3.06055 -6.89844,-3.06055 z m 0,1.09375 c 2.60846,0 4.57195,0.87605 6.05469,2.66602 1.48349,1.79088 2.24804,4.24052 2.24804,7.42969 v 1.16406 h -16.74023 l 0.004,0.55078 c 0.0292,3.27388 0.79316,5.85447 2.35742,7.66406 l 0.002,0.002 c 1.5778,1.80756 3.86115,2.70898 6.69531,2.70898 1.34989,0 2.54226,-0.0941 3.58204,-0.28711 0.86449,-0.15829 1.99676,-0.55498 3.17968,-0.99219 v 0.78321 c -1.1416,0.4727 -2.22217,0.84145 -3.18164,1.01367 h -0.004 -0.004 c -1.07137,0.20603 -2.262,0.31055 -3.57227,0.31055 -3.26343,0 -5.71599,-0.98013 -7.50195,-2.93946 l -0.002,-0.002 c -1.77008,-1.95895 -2.67774,-4.71838 -2.67774,-8.37305 0,-3.61486 0.88205,-6.43541 2.61133,-8.54297 v -0.002 c 1.72814,-2.11967 3.98922,-3.1543 6.94922,-3.1543 z m 0,0.78711 c -2.35683,0 -4.33244,0.80714 -5.78711,2.39844 -1.45991,1.58285 -2.28107,3.83668 -2.51562,6.69531 l -0.0488,0.5918 h 15.5039 v -0.54688 c 0,-2.771 -0.60159,-5.004 -1.86523,-6.63867 l -0.002,-0.002 c -1.26304,-1.64669 -3.08554,-2.49805 -5.28516,-2.49805 z m 0,1.09375 c 1.93147,0 3.3443,0.67125 4.41797,2.07227 l 0.002,0.002 c 0.98701,1.27589 1.48989,3.11109 1.57227,5.42383 h -13.08203 c 0.28537,-2.36384 0.96474,-4.21227 2.10742,-5.45117 v -0.002 h 0.002 c 1.25239,-1.37104 2.86425,-2.04492 4.98047,-2.04492 z" id="path22747"></path></g><g id="path22658"><path style="color:#000000;-inkscape-font-specification:'Open Sans Light';stroke:none;-inkscape-stroke:none" d="m -143.87283,154.47383 h -2.11593 v -33.25638 h 2.11593 z" id="path22751"></path><path style="color:#000000;-inkscape-font-specification:'Open Sans Light';stroke:none;-inkscape-stroke:none" d="m -146.53516,120.66992 v 34.35156 h 3.20899 v -0.54687 -33.80469 z m 1.09375,1.09375 h 1.02149 v 32.16211 h -1.02149 z" id="path22753"></path></g><g id="path22660"><path style="color:#000000;-inkscape-font-specification:'Open Sans Light';stroke:none;-inkscape-stroke:none" d="m -127.56524,130.79255 q 2.52201,0 4.36009,0.91904 1.83808,0.91904 3.29144,3.14183 h 0.12824 q -0.12824,-2.693 -0.12824,-5.27913 v -8.35684 h 2.09456 v 33.25638 h -1.38925 l -0.53432,-3.54792 h -0.17099 q -2.65025,3.97538 -7.60878,3.97538 -4.80893,0 -7.35231,-2.99222 -2.54339,-2.99222 -2.54339,-8.72018 0,-6.02719 2.52201,-9.21176 2.52202,-3.18458 7.33094,-3.18458 z m 0,1.92357 q -3.80439,0 -5.72796,2.67162 -1.9022,2.67163 -1.9022,7.7584 0,9.87433 7.67291,9.87433 3.93263,0 5.77071,-2.28691 1.83807,-2.28691 1.83807,-7.54467 v -0.36334 q 0,-5.386 -1.8167,-7.73703 -1.79533,-2.3724 -5.83483,-2.3724 z" id="path22757"></path><path style="color:#000000;-inkscape-font-specification:'Open Sans Light';stroke:none;-inkscape-stroke:none" d="m -120.46094,120.66992 v 8.9043 c 0,1.26283 0.0481,2.56496 0.0937,3.86523 -0.78993,-0.94008 -1.6345,-1.73717 -2.59375,-2.21679 -1.31491,-0.65746 -2.85571,-0.97657 -4.60351,-0.97657 -3.32673,0 -5.97334,1.13489 -7.75977,3.39063 -1.78564,2.25475 -2.64062,5.45829 -2.64062,9.55273 0,3.89962 0.86665,6.94814 2.67382,9.07422 1.8058,2.12447 4.44815,3.18555 7.76758,3.18555 3.07959,0 5.56663,-1.20794 7.39258,-3.42969 l 0.45117,3.00195 h 2.40821 v -34.35156 z m 1.09375,1.09375 h 1 v 32.16211 h -0.37109 l -0.5332,-3.54687 h -0.93555 l -0.16211,0.24414 c -1.67947,2.51921 -3.99484,3.73047 -7.1543,3.73047 -3.09246,0 -5.34822,-0.93368 -6.93359,-2.79883 -1.58401,-1.86354 -2.41406,-4.62758 -2.41406,-8.36524 0,-3.9418 0.82726,-6.8817 2.40429,-8.87304 1.57627,-1.99037 3.81718,-2.97657 6.90235,-2.97657 1.61487,0 2.97938,0.2934 4.11523,0.86133 1.11916,0.55958 2.14814,1.52883 3.07813,2.95117 l 0.16211,0.24805 h 0.99804 l -0.0273,-0.57227 c -0.0851,-1.78701 -0.12891,-3.53886 -0.12891,-5.2539 z m -8.19726,10.40625 c -2.66434,0 -4.78956,0.97855 -6.17188,2.89844 h -0.002 v 0.002 c -1.3633,1.91474 -2.00391,4.6168 -2.00391,8.07617 0,3.36231 0.64595,5.95497 2.03321,7.74024 1.38725,1.78527 3.51055,2.68164 6.18554,2.68164 2.72781,0 4.85251,-0.81907 6.19727,-2.49219 1.35365,-1.68419 1.95898,-4.31779 1.95898,-7.88672 v -0.36328 c 0,-3.64998 -0.59468,-6.34092 -1.92773,-8.06836 -1.31604,-1.73905 -3.46942,-2.58789 -6.26953,-2.58789 z m 0,1.09375 c 2.58588,0 4.32071,0.73016 5.39843,2.1543 v 0.002 l 0.002,0.004 c 1.08752,1.40739 1.70312,3.8732 1.70312,7.40234 v 0.36328 c 0,3.44141 -0.61968,5.83616 -1.71679,7.20117 -1.10602,1.37609 -2.83002,2.08204 -5.34571,2.08204 -2.44028,0 -4.15189,-0.74969 -5.32226,-2.25586 -1.17038,-1.50617 -1.80274,-3.84974 -1.80274,-7.07032 0,-3.3217 0.62672,-5.79202 1.79883,-7.43945 l 0.002,-0.002 c 1.18236,-1.64067 2.87619,-2.44141 5.28321,-2.44141 z" id="path22759"></path></g><g id="path22662"><path style="color:#000000;-inkscape-font-specification:'Open Sans Light';stroke:none;-inkscape-stroke:none" d="m -90.782309,142.82555 q 0,5.68521 -2.757117,8.89116 -2.757117,3.18458 -7.608784,3.18458 -3.05634,0 -5.386,-1.47474 -2.32966,-1.47473 -3.56929,-4.23185 -1.23963,-2.75712 -1.23963,-6.36915 0,-5.68522 2.75711,-8.84842 2.75712,-3.18458 7.56604,-3.18458 4.787556,0 7.501927,3.22732 2.735744,3.20595 2.735744,8.80568 z m -18.338031,0 q 0,4.78755 2.09455,7.48055 2.11593,2.67162 5.96307,2.67162 3.847138,0 5.941692,-2.67162 2.115927,-2.693 2.115927,-7.48055 0,-4.80893 -2.1373,-7.45918 -2.115927,-2.65025 -5.963069,-2.65025 -3.84714,0 -5.94169,2.65025 -2.07318,2.62888 -2.07318,7.45918 z" id="path22763"></path><path style="color:#000000;-inkscape-font-specification:'Open Sans Light';stroke:none;-inkscape-stroke:none" d="m -101.01953,130.24609 c -3.32672,0 -6.03936,1.13099 -7.98047,3.37305 -1.9436,2.23105 -2.89062,5.32957 -2.89063,9.20703 1e-5,2.47061 0.426,4.67417 1.28907,6.59375 0.86402,1.92172 2.12914,3.42664 3.77539,4.46875 1.64447,1.041 3.55217,1.56055 5.67773,1.56055 3.354158,0 6.081412,-1.13188 8.02344,-3.375 1.942331,-2.25853 2.890625,-5.36946 2.890625,-9.24805 0,-3.82041 -0.941174,-6.90154 -2.865234,-9.1582 -1.911576,-2.27282 -4.605276,-3.42188 -7.919921,-3.42188 z m 0,1.09375 c 3.068754,0 5.374448,1.00098 7.08203,3.03125 l 0.002,0.002 0.002,0.002 c 1.721722,2.01764 2.603516,4.80713 2.603516,8.45117 0,3.70169 -0.891179,6.51713 -2.625,8.5332 -1.734019,2.00216 -4.079277,2.99415 -7.193362,2.99415 -1.94955,0 -3.63201,-0.46335 -5.09375,-1.38868 -1.45996,-0.92419 -2.57251,-2.2397 -3.36133,-3.99414 -0.78977,-1.75657 -1.19336,-3.7991 -1.19336,-6.14453 1e-5,-3.70169 0.89166,-6.50383 2.62305,-8.49023 h 0.002 c 1.73505,-2.00404 4.06718,-2.9961 7.15235,-2.9961 z m -0.0859,0.83008 c -2.6904,0 -4.87368,0.96274 -6.37109,2.85742 -1.48302,1.88053 -2.19141,4.50036 -2.19141,7.79883 0,3.27149 0.71811,5.89705 2.21094,7.81641 v 0.002 l 0.002,0.002 c 1.51082,1.9076 3.70117,2.87891 6.39258,2.87891 2.691411,0 4.87437,-0.97178 6.371094,-2.88086 1.507933,-1.91919 2.234375,-4.54605 2.234375,-7.81836 0,-3.28587 -0.732512,-5.90822 -2.257813,-7.80078 l -0.002,-0.002 c -1.511435,-1.89171 -3.699329,-2.85352 -6.388673,-2.85352 z m 0,1.09375 c 2.439118,0 4.225422,0.80289 5.535158,2.44336 l 0.002,0.002 c 1.323349,1.64096 2.015625,3.9923 2.015625,7.11719 0,3.11109 -0.684747,5.47111 -1.998047,7.14258 -1.296012,1.65307 -3.073618,2.46094 -5.511719,2.46094 -2.43586,0 -4.22117,-0.8075 -5.53125,-2.45899 v -0.002 c -1.29924,-1.67122 -1.97852,-4.03148 -1.97852,-7.14258 0,-3.14192 0.67386,-5.49645 1.95508,-7.12109 1.29532,-1.63898 3.07261,-2.44141 5.51172,-2.44141 z" id="path22765"></path></g><g id="path22664"><path style="color:#000000;-inkscape-font-specification:'Open Sans Light';stroke:none;-inkscape-stroke:none" d="m -75.201393,130.79255 q 1.474737,0 3.163203,0.29922 l -0.406086,2.03044 q -1.453364,-0.36334 -3.013593,-0.36334 -2.970847,0 -4.873044,2.52201 -1.902197,2.52201 -1.902197,6.36915 v 12.8238 h -2.115926 v -23.23245 h 1.795331 l 0.21373,4.18911 h 0.149611 q 1.431991,-2.56476 3.056339,-3.59066 1.624348,-1.04728 3.932632,-1.04728 z" id="path22769"></path><path style="color:#000000;-inkscape-font-specification:'Open Sans Light';stroke:none;-inkscape-stroke:none" d="m -75.201172,130.24609 c -1.621602,0 -3.046414,0.37262 -4.228515,1.13477 -0.882603,0.5585 -1.676259,1.49124 -2.435547,2.60156 l -0.167969,-3.28906 h -2.863281 v 24.32812 h 3.210937 v -13.37109 c 0,-2.47458 0.603425,-4.46451 1.791016,-6.03906 1.18567,-1.57201 2.611766,-2.30469 4.4375,-2.30469 0.997679,0 1.956644,0.11465 2.880859,0.3457 l 0.556641,0.14063 0.626953,-3.14258 -0.550781,-0.0977 c -1.152593,-0.20425 -2.237651,-0.30664 -3.257813,-0.30664 z m 0,1.09375 c 0.773316,0 1.632485,0.10852 2.507813,0.23828 l -0.189453,0.94532 c -0.840518,-0.16973 -1.687917,-0.3125 -2.574219,-0.3125 -2.135392,0 -3.959957,0.94956 -5.310547,2.74023 -1.34867,1.78812 -2.011719,4.04428 -2.011719,6.69922 v 12.27539 h -1.023437 v -22.13672 h 0.728515 l 0.214844,4.18946 h 0.990234 l 0.15625,-0.28125 c 0.92687,-1.66007 1.900872,-2.78177 2.871094,-3.39454 l 0.002,-0.002 0.002,-0.002 c 0.983694,-0.63423 2.180613,-0.95899 3.636719,-0.95899 z" id="path22771"></path></g><g id="path22666"><path style="color:#000000;-inkscape-font-specification:'Open Sans Light';stroke:none;-inkscape-stroke:none" d="m -58.701436,133.07946 h -5.471488 v 21.39437 h -2.115927 v -21.39437 h -4.317345 v -1.23963 l 4.317345,-0.7908 v -1.79534 q 0,-4.2746 1.560229,-6.26229 1.581602,-2.00906 5.150893,-2.00906 1.92357,0 3.847139,0.57707 l -0.491578,1.83808 q -1.70984,-0.53432 -3.398307,-0.53432 -2.479268,0 -3.526545,1.47473 -1.025904,1.45337 -1.025904,4.74481 v 2.15867 h 5.471488 z" id="path22775"></path><path style="color:#000000;-inkscape-font-specification:'Open Sans Light';stroke:none;-inkscape-stroke:none" d="m -59.578125,120.43555 c -2.482184,0 -4.401938,0.72024 -5.580078,2.21679 v 0.002 c -1.157775,1.47497 -1.677734,3.68331 -1.677734,6.59961 v 1.33984 l -4.31836,0.79102 v 2.24218 h 4.31836 v 21.39453 H -63.625 v -21.39453 h 5.470703 v -0.54687 -2.38672 H -63.625 v -1.61133 c 0,-2.13744 0.354066,-3.6178 0.925781,-4.42773 0.580256,-0.81616 1.534557,-1.24414 3.078125,-1.24414 1.067928,0 2.145377,0.16884 3.236328,0.50976 l 0.542969,0.16992 0.777344,-2.90234 -0.509766,-0.15234 c -1.330458,-0.39914 -2.666812,-0.59961 -4.003906,-0.59961 z m 0,1.09375 c 1.052152,0 2.105721,0.20293 3.162109,0.47461 l -0.208984,0.7832 c -0.999857,-0.26323 -2.000831,-0.4707 -2.996094,-0.4707 -1.761329,0 -3.156457,0.55574 -3.972656,1.70507 -0.796156,1.1279 -1.126953,2.80941 -1.126953,5.06055 v 2.70703 h 5.472656 v 0.74414 h -5.472656 v 21.39258 h -1.021484 V 132.5332 h -4.316407 v -0.23828 l 4.316407,-0.78906 v -2.25195 c 0,-2.78316 0.52083,-4.74856 1.443359,-5.92383 0.93066,-1.18219 2.443837,-1.80078 4.720703,-1.80078 z" id="path22777"></path></g><g id="path22668"><path style="color:#000000;-inkscape-font-specification:'Open Sans Light';stroke:none;-inkscape-stroke:none" d="m -44.723488,143.53086 v -1.75259 h 10.152174 v 1.75259 z" id="path22781"></path><path style="color:#000000;-inkscape-font-specification:'Open Sans Light';stroke:none;-inkscape-stroke:none" d="m -45.271484,141.23047 v 2.84765 h 0.548828 10.699219 v -2.84765 z m 1.095703,1.0957 h 9.05664 v 0.6582 h -9.05664 z" id="path22783"></path></g><g id="path22670"><path style="color:#000000;-inkscape-font-specification:'Open Sans Light';stroke:none;-inkscape-stroke:none" d="m -16.788985,154.47383 v -31.24732 h 2.180046 v 31.24732 z" id="path22787"></path><path style="color:#000000;-inkscape-font-specification:'Open Sans Light';stroke:none;-inkscape-stroke:none" d="m -17.335937,122.67969 v 32.34179 h 0.546875 2.726562 v -32.34179 z m 1.09375,1.09375 h 1.085937 v 30.15234 h -1.085937 z" id="path22789"></path></g><g id="path22672"><path style="color:#000000;-inkscape-font-specification:'Open Sans Light';stroke:none;-inkscape-stroke:none" d="m 9.9058953,154.47383 v -15.06796 q 0,-3.50517 -1.4747368,-5.08678 -1.4747369,-1.60297 -4.5738216,-1.60297 -4.16773466,0 -6.1126775,2.11593 -1.9235698,2.09455 -1.9235698,6.81798 v 12.8238 h -2.1159268 v -23.23245 h 1.7953318 l 0.406087,3.18458 h 0.128238 q 2.2655378,-3.63341 8.0576203,-3.63341 7.9080091,0 7.9080091,8.48508 v 15.1962 z" id="path22793"></path><path style="color:#000000;-inkscape-font-specification:'Open Sans Light';stroke:none;-inkscape-stroke:none" d="m 4.0917969,130.24609 c -3.47051115,0 -6.0804276,1.04409 -7.78125,3.02344 l -0.328125,-2.57617 h -2.8242188 v 24.32812 h 3.2109375 v -13.37109 c 0,-3.07374 0.6361699,-5.20166 1.7792969,-6.44727 1.16485445,-1.26726 3.023092,-1.93945 5.7089844,-1.93945 1.9717185,0 3.3180159,0.49768 4.171875,1.42578 v 0.002 h 0.00195 c 0.8456692,0.90695 1.328125,2.4548 1.328125,4.71484 v 15.61523 h 0.546875 2.640625 v -15.74414 c 0,-2.91334 -0.681007,-5.18905 -2.123047,-6.73632 -1.4420398,-1.54727 -3.5981846,-2.29493 -6.3320311,-2.29493 z m 0,1.09375 c 2.5381543,0 4.3372895,0.66618 5.53125,1.94727 1.1939601,1.28109 1.8300781,3.24687 1.8300781,5.99023 v 14.64844 h -1 v -14.51953 c 0,-2.41148 -0.5004861,-4.2551 -1.6191406,-5.45703 -1.1124549,-1.20919 -2.8161723,-1.7793 -4.9765625,-1.7793 -2.87108168,0 -5.0872249,0.73704 -6.515625,2.29102 v 0.002 c -1.4209763,1.54728 -2.0683594,3.96428 -2.0683594,7.1875 v 12.27539 h -1.0214844 v -22.13672 h 0.7675782 l 0.4042968,3.1836 h 0.9140625 L -3.5,134.71484 c 1.3995907,-2.24462 3.84482251,-3.375 7.5917969,-3.375 z" id="path22795"></path></g><g id="path22674"><path style="color:#000000;-inkscape-font-specification:'Open Sans Light';stroke:none;-inkscape-stroke:none" d="m 25.657786,153.02047 q 2.009062,0 3.505172,-0.34197 v 1.70984 q -1.538856,0.51295 -3.547918,0.51295 -3.077712,0 -4.552448,-1.64572 -1.453364,-1.64572 -1.453364,-5.17227 v -15.00384 h -3.441053 v -1.23963 l 3.441053,-0.96179 1.06865,-5.25776 h 1.090023 v 5.6211 h 6.817986 v 1.83808 h -6.817986 v 14.70462 q 0,2.67163 0.940411,3.95401 0.940412,1.28238 2.949474,1.28238 z" id="path22799"></path><path style="color:#000000;-inkscape-font-specification:'Open Sans Light';stroke:none;-inkscape-stroke:none" d="m 20.230469,125.07227 -1.089844,5.36914 -3.519531,0.98242 v 2.20312 H 19.0625 v 14.45703 c 0,2.4262 0.492577,4.29072 1.589844,5.53321 l 0.002,0.002 v 0.002 c 1.109403,1.23803 2.811607,1.82813 4.960937,1.82813 1.385939,0 2.627033,-0.17646 3.720703,-0.54102 l 0.375,-0.125 v -2.79101 l -0.669921,0.15234 c -0.945542,0.21613 -2.074484,0.32813 -3.382813,0.32813 -1.222958,0 -1.990753,-0.35352 -2.507812,-1.0586 -0.519787,-0.7088 -0.835938,-1.91397 -0.835938,-3.63086 v -14.15625 h 6.818359 v -2.93359 h -6.818359 v -5.62109 z m 0.894531,1.0957 h 0.0957 v 5.62109 h 6.818359 v 0.74414 h -6.818359 v 15.25 c 0,1.84529 0.312782,3.27826 1.046875,4.2793 0.736822,1.00476 1.934837,1.50586 3.390625,1.50586 1.117278,0 2.053816,-0.13259 2.957031,-0.29102 v 0.64649 c -0.884437,0.25334 -1.850884,0.42969 -3,0.42969 -1.952951,0 -3.285603,-0.50594 -4.142578,-1.46094 l -0.002,-0.002 c -0.839587,-0.95198 -1.314453,-2.53216 -1.314453,-4.80664 V 132.5332 h -3.441406 v -0.27734 l 3.363281,-0.94141 z" id="path22801"></path></g><g id="path22676"><path style="color:#000000;-inkscape-font-specification:'Open Sans Light';stroke:none;-inkscape-stroke:none" d="m 43.611102,154.90129 q -5.0654,0 -7.908009,-3.12046 -2.821236,-3.12045 -2.821236,-8.74155 0,-5.55698 2.735744,-8.89117 2.735744,-3.35556 7.373684,-3.35556 4.103616,0 6.476019,2.86398 2.372403,2.86398 2.372403,7.77977 v 1.70984 H 35.104649 q 0.04275,4.78755 2.222792,7.30957 2.201419,2.52201 6.283661,2.52201 1.987689,0 3.483799,-0.27785 1.517483,-0.27785 3.825767,-1.19689 v 1.92357 q -1.966316,0.85492 -3.63341,1.15415 -1.667094,0.32059 -3.676156,0.32059 z m -0.619817,-22.22792 q -3.35556,0 -5.385995,2.22279 -2.030435,2.20142 -2.372403,6.36916 h 14.362655 q 0,-4.0395 -1.752586,-6.30504 -1.752586,-2.28691 -4.851671,-2.28691 z" id="path22805"></path><path style="color:#000000;-inkscape-font-specification:'Open Sans Light';stroke:none;-inkscape-stroke:none" d="m 42.992187,130.24609 c -3.223911,0 -5.879313,1.20224 -7.798828,3.55664 -1.917269,2.3378 -2.859375,5.44298 -2.859375,9.23633 0,3.83894 0.972459,6.90784 2.962891,9.10938 h 0.002 c 2.004028,2.19991 4.823216,3.30078 8.3125,3.30078 1.368477,0 2.627875,-0.11061 3.779297,-0.33203 1.162206,-0.20916 2.408828,-0.60719 3.748047,-1.18946 l 0.330078,-0.14257 v -3.08985 l -0.75,0.29883 c -1.518177,0.60446 -2.767783,0.99313 -3.722656,1.16797 h -0.002 c -0.954637,0.17729 -2.083183,0.26758 -3.382813,0.26758 -2.608815,0 -4.513665,-0.77888 -5.871094,-2.33399 -1.250181,-1.44739 -1.90046,-3.6086 -2.013672,-6.40234 h 16.660157 v -2.25781 c 0,-3.36521 -0.818342,-6.10116 -2.498047,-8.12891 -1.680466,-2.02867 -4.033455,-3.06055 -6.896485,-3.06055 z m 0,1.09375 c 2.608454,0 4.571953,0.87605 6.054688,2.66602 1.483496,1.79088 2.246094,4.24052 2.246094,7.42969 v 1.16406 H 34.552734 l 0.0039,0.55078 c 0.02923,3.27388 0.793205,5.85447 2.357421,7.66406 l 0.002,0.002 c 1.577793,1.80756 3.861144,2.70898 6.695312,2.70898 1.349888,0 2.542255,-0.0941 3.582031,-0.28711 0.864498,-0.15829 1.996761,-0.55498 3.179688,-0.99219 v 0.78321 c -1.14161,0.4727 -2.222178,0.84145 -3.181641,1.01367 h -0.0039 -0.0039 c -1.071368,0.20603 -2.261996,0.31055 -3.572266,0.31055 -3.263434,0 -5.715998,-0.98013 -7.501953,-2.93946 l -0.002,-0.002 c -1.770071,-1.95895 -2.677735,-4.71838 -2.677735,-8.37305 0,-3.61486 0.882052,-6.43541 2.611329,-8.54297 v -0.002 c 1.72814,-2.11967 3.991169,-3.1543 6.951171,-3.1543 z m 0,0.78711 c -2.356825,0 -4.334392,0.80714 -5.789062,2.39844 -1.459912,1.58285 -2.281071,3.83668 -2.515625,6.69531 l -0.04883,0.5918 h 15.503906 v -0.54688 c 0,-2.771 -0.601597,-5.004 -1.865234,-6.63867 l -0.002,-0.002 c -1.263035,-1.64669 -3.083585,-2.49805 -5.283204,-2.49805 z m 0,1.09375 c 1.931469,0 3.34234,0.67125 4.416016,2.07227 l 0.002,0.002 c 0.987005,1.27589 1.489886,3.11109 1.572266,5.42383 H 35.900391 c 0.285368,-2.36384 0.964741,-4.21227 2.107421,-5.45117 v -0.002 h 0.002 c 1.252395,-1.37104 2.866198,-2.04492 4.982421,-2.04492 z" id="path22807"></path></g><g id="path22678"><path style="color:#000000;-inkscape-font-specification:'Open Sans Light';stroke:none;-inkscape-stroke:none" d="m 67.399254,130.79255 q 1.474737,0 3.163203,0.29922 l -0.406087,2.03044 q -1.453363,-0.36334 -3.013592,-0.36334 -2.970847,0 -4.873044,2.52201 -1.902197,2.52201 -1.902197,6.36915 v 12.8238 h -2.115926 v -23.23245 h 1.795331 l 0.21373,4.18911 h 0.149611 q 1.431991,-2.56476 3.056339,-3.59066 1.624348,-1.04728 3.932632,-1.04728 z" id="path22811"></path><path style="color:#000000;-inkscape-font-specification:'Open Sans Light';stroke:none;-inkscape-stroke:none" d="m 67.398437,130.24609 c -1.621602,0 -3.046414,0.37262 -4.228515,1.13477 -0.882251,0.55828 -1.676521,1.48994 -2.435547,2.59961 l -0.167969,-3.28711 h -2.861328 v 24.32812 h 3.208984 v -13.37109 c 0,-2.47458 0.605379,-4.46451 1.792969,-6.03906 1.18567,-1.57201 2.609813,-2.30469 4.435547,-2.30469 0.997679,0 1.956645,0.11465 2.880859,0.3457 l 0.556641,0.14063 0.628906,-3.14258 -0.550781,-0.0977 c -1.152593,-0.20425 -2.239603,-0.30664 -3.259766,-0.30664 z m 0,1.09375 c 0.773316,0 1.632485,0.10852 2.507813,0.23828 l -0.189453,0.94532 c -0.840032,-0.16952 -1.688459,-0.3125 -2.574219,-0.3125 -2.135391,0 -3.959957,0.94956 -5.310547,2.74023 -1.34867,1.78812 -2.011719,4.04428 -2.011719,6.69922 v 12.27539 h -1.021484 v -22.13672 h 0.728516 l 0.21289,4.18946 h 0.992188 l 0.15625,-0.28125 c 0.926869,-1.66007 1.900872,-2.78177 2.871094,-3.39454 l 0.002,-0.002 0.002,-0.002 c 0.983694,-0.63423 2.178659,-0.95899 3.634765,-0.95899 z" id="path22813"></path></g><g id="path22680"><path style="color:#000000;-inkscape-font-specification:'Open Sans Light';stroke:none;-inkscape-stroke:none" d="m 91.465252,154.47383 v -15.06796 q 0,-3.50517 -1.474737,-5.08678 -1.474737,-1.60297 -4.573821,-1.60297 -4.167735,0 -6.112678,2.11593 -1.92357,2.09455 -1.92357,6.81798 v 12.8238 h -2.115927 v -23.23245 h 1.795332 l 0.406087,3.18458 h 0.128238 q 2.265538,-3.63341 8.057621,-3.63341 7.908009,0 7.908009,8.48508 v 15.1962 z" id="path22817"></path><path style="color:#000000;-inkscape-font-specification:'Open Sans Light';stroke:none;-inkscape-stroke:none" d="m 85.652344,130.24609 c -3.471447,0 -6.082445,1.04497 -7.783203,3.02539 l -0.328125,-2.57812 h -2.824219 v 24.32812 h 3.210937 v -13.37109 c 0,-3.07374 0.636171,-5.20166 1.779297,-6.44727 1.164855,-1.26726 3.023092,-1.93945 5.708985,-1.93945 1.971718,0 3.318015,0.49768 4.171875,1.42578 l 0.002,0.002 c 0.845669,0.90695 1.328125,2.4548 1.328125,4.71484 v 15.61523 h 0.546875 2.642578 v -15.74414 c 0,-2.91334 -0.68296,-5.18905 -2.125,-6.73632 -1.44204,-1.54727 -3.596232,-2.29493 -6.330078,-2.29493 z m 0,1.09375 c 2.538154,0 4.335336,0.66618 5.529297,1.94727 1.19396,1.28109 1.830078,3.24687 1.830078,5.99023 v 14.64844 h -1 v -14.51953 c 0,-2.41148 -0.500486,-4.2551 -1.619141,-5.45703 -1.112455,-1.20919 -2.816173,-1.7793 -4.976562,-1.7793 -2.871082,0 -5.087225,0.73704 -6.515625,2.29102 v 0.002 c -1.420977,1.54728 -2.066407,3.96428 -2.066407,7.1875 v 12.27539 H 75.8125 v -22.13672 h 0.765625 l 0.40625,3.1836 h 0.914062 l 0.160157,-0.25782 c 1.399591,-2.24462 3.846775,-3.375 7.59375,-3.375 z" id="path22819"></path></g><g id="path22682"><path style="color:#000000;-inkscape-font-specification:'Open Sans Light';stroke:none;-inkscape-stroke:none" d="m 115.18927,154.47383 -0.53432,-3.67615 h -0.17099 q -1.75258,2.24416 -3.61203,3.18457 -1.83808,0.91904 -4.3601,0.91904 -3.41968,0 -5.32187,-1.75258 -1.902199,-1.75259 -1.902199,-4.85168 0,-3.3983 2.821239,-5.27913 2.84261,-1.88082 8.20723,-1.98768 l 4.42421,-0.12824 v -1.53886 q 0,-3.31281 -1.3465,-5.00128 -1.3465,-1.68847 -4.33872,-1.68847 -3.22732,0 -6.68975,1.79533 l -0.7908,-1.83807 q 3.82577,-1.79533 7.56604,-1.79533 3.82577,0 5.70659,1.98768 1.9022,1.98769 1.9022,6.19817 v 15.45268 z m -8.5492,-1.49611 q 3.7189,0 5.8562,-2.11593 2.15868,-2.1373 2.15868,-5.92032 v -2.28691 l -4.06087,0.17099 q -4.89442,0.2351 -6.98897,1.53885 -2.07318,1.28238 -2.07318,4.01813 0,2.18004 1.32512,3.3983 1.3465,1.19689 3.78302,1.19689 z" id="path22823"></path><path style="color:#000000;-inkscape-font-specification:'Open Sans Light';stroke:none;-inkscape-stroke:none" d="m 109.14063,130.28906 c -2.58106,0 -5.18624,0.61969 -7.79883,1.84571 l -0.47852,0.2246 1.23242,2.86524 0.52149,-0.26953 c 2.24661,-1.16491 4.38741,-1.73438 6.4375,-1.73438 1.89189,0 3.13762,0.51124 3.91211,1.48242 0.78891,0.98927 1.22656,2.52575 1.22656,4.66016 v 1.00781 l -3.89258,0.11133 c -3.63631,0.0729 -6.47175,0.74196 -8.49414,2.08008 h -0.002 c -2.007374,1.33825 -3.064456,3.31743 -3.064456,5.73437 0,2.17801 0.691799,3.97662 2.078126,5.25391 1.38829,1.2791 3.3201,1.89844 5.69336,1.89844 1.74781,0 3.29055,-0.32106 4.60547,-0.97852 h 0.002 c 1.0955,-0.55404 2.12996,-1.48214 3.13477,-2.62304 l 0.46289,3.17382 h 0.47265 2.10743 v -16 c -1e-5,-2.88816 -0.6524,-5.10964 -2.05274,-6.57421 -1.38117,-1.45965 -3.45825,-2.15821 -6.10351,-2.15821 z m 0,1.09375 c 2.45575,0 4.18201,0.62582 5.30859,1.81641 h 0.002 v 0.002 c 1.13471,1.1857 1.75196,3.09573 1.75196,5.82031 v 14.9043 h -0.54102 l -0.5332,-3.67578 h -0.91211 l -0.16407,0.21094 c -1.13269,1.4504 -2.28152,2.452 -3.42578,3.03125 -1.13585,0.56792 -2.50035,0.86133 -4.11523,0.86133 -2.18631,0 -3.80321,-0.54975 -4.95117,-1.60743 -1.14994,-1.05949 -1.726566,-2.4951 -1.726566,-4.44922 0,-2.11411 0.823846,-3.65469 2.578126,-4.82421 1.76694,-1.16833 4.40089,-1.82455 7.91406,-1.89454 h 0.004 l 4.95703,-0.14453 v -2.07031 c 0,-2.28267 -0.45842,-4.07977 -1.46484,-5.3418 -1.02085,-1.28011 -2.66985,-1.89453 -4.76758,-1.89453 -2.07844,0 -4.21757,0.59304 -6.39649,1.64063 l -0.35156,-0.82031 c 2.31395,-1.01415 4.59078,-1.56446 6.83399,-1.56446 z m 6.06054,10.70117 -4.63086,0.19532 h -0.002 c -3.30762,0.15888 -5.70579,0.65868 -7.25195,1.62109 -1.52932,0.94658 -2.33204,2.52093 -2.33203,4.48242 0,1.56422 0.49883,2.87856 1.50195,3.80078 l 0.004,0.004 0.004,0.002 c 1.02015,0.9068 2.43255,1.33594 4.14649,1.33594 2.58303,0 4.70261,-0.75314 6.24023,-2.27539 1.55381,-1.53842 2.32031,-3.68251 2.32031,-6.30859 z m -1.09375,1.14063 v 1.7168 c 0,2.41793 -0.67167,4.21994 -1.99609,5.53125 -1.31211,1.29899 -3.09521,1.95703 -5.4707,1.95703 -1.53476,0 -2.64474,-0.36954 -3.41993,-1.0586 -0.75884,-0.70146 -1.14257,-1.65008 -1.14257,-2.98828 0,-1.68562 0.58037,-2.78938 1.81445,-3.55273 h 0.002 v -0.002 c 1.24657,-0.77592 3.5083,-1.30244 6.72656,-1.45703 l -0.004,0.002 z" id="path22825"></path></g><g id="path22684"><path style="color:#000000;-inkscape-font-specification:'Open Sans Light';stroke:none;-inkscape-stroke:none" d="m 130.38548,153.02047 q 2.00906,0 3.50517,-0.34197 v 1.70984 q -1.53886,0.51295 -3.54792,0.51295 -3.07771,0 -4.55245,-1.64572 -1.45336,-1.64572 -1.45336,-5.17227 v -15.00384 h -3.44105 v -1.23963 l 3.44105,-0.96179 1.06865,-5.25776 h 1.09002 v 5.6211 h 6.81799 v 1.83808 h -6.81799 v 14.70462 q 0,2.67163 0.94041,3.95401 0.94042,1.28238 2.94948,1.28238 z" id="path22829"></path><path style="color:#000000;-inkscape-font-specification:'Open Sans Light';stroke:none;-inkscape-stroke:none" d="m 124.95898,125.07227 -1.09179,5.36914 -3.51758,0.98242 v 2.20312 h 3.43945 v 14.45703 c 0,2.4262 0.49454,4.29072 1.5918,5.53321 v 0.002 l 0.002,0.002 c 1.10941,1.23803 2.80966,1.82813 4.95899,1.82813 1.38593,0 2.62898,-0.17646 3.72265,-0.54102 l 0.37305,-0.125 v -2.79101 l -0.66797,0.15234 c -0.94554,0.21613 -2.07644,0.32813 -3.38476,0.32813 -1.22296,0 -1.99075,-0.35351 -2.50782,-1.0586 -0.51978,-0.7088 -0.83398,-1.91397 -0.83398,-3.63086 v -14.15625 h 6.81836 v -2.93359 h -6.81836 v -5.62109 z m 0.89454,1.0957 h 0.0957 v 5.62109 h 6.8164 v 0.74414 h -6.8164 v 15.25 c 0,1.84529 0.31083,3.27826 1.04492,4.2793 0.73683,1.00476 1.93484,1.50586 3.39063,1.50586 1.118,0 2.05531,-0.13238 2.95898,-0.29102 v 0.64453 c -0.88489,0.25372 -1.852,0.43165 -3.00195,0.43165 -1.95215,0 -3.28361,-0.5067 -4.14063,-1.46094 -0.84055,-0.9518 -1.3164,-2.53273 -1.3164,-4.8086 V 132.5332 h -3.44141 v -0.27734 l 3.36328,-0.94141 z" id="path22831"></path></g><g id="path22686"><path style="color:#000000;-inkscape-font-specification:'Open Sans Light';stroke:none;-inkscape-stroke:none" d="m 141.07197,154.47383 h -2.11592 v -23.23245 h 2.11592 z m -2.41514,-29.68709 q 0,-2.05181 1.34649,-2.05181 0.66257,0 1.02591,0.53432 0.38471,0.53433 0.38471,1.51749 0,0.96178 -0.38471,1.51748 -0.36334,0.5557 -1.02591,0.5557 -1.34649,0 -1.34649,-2.07318 z" id="path22835"></path><path style="color:#000000;-inkscape-font-specification:'Open Sans Light';stroke:none;-inkscape-stroke:none" d="m 140.00391,122.1875 c -0.58779,0 -1.15254,0.27791 -1.46875,0.75977 -0.31622,0.48185 -0.42579,1.09606 -0.42579,1.83984 0,0.75029 0.11061,1.3663 0.42579,1.85156 0.31517,0.48527 0.87951,0.76758 1.46875,0.76758 0.5922,0 1.15035,-0.30453 1.47656,-0.79883 0.33742,-0.49094 0.48047,-1.10921 0.48047,-1.82031 0,-0.72373 -0.14014,-1.3456 -0.48633,-1.83008 -0.32987,-0.47953 -0.88499,-0.76953 -1.4707,-0.76953 z m 0,1.09375 c 0.29463,0 0.417,0.0666 0.57226,0.29492 l 0.004,0.006 0.006,0.008 c 0.16349,0.22709 0.28125,0.6132 0.28125,1.19727 0,0.56823 -0.11473,0.95607 -0.28711,1.20508 l -0.004,0.006 -0.006,0.006 c -0.15886,0.24296 -0.27766,0.30859 -0.5664,0.30859 -0.30843,0 -0.41713,-0.0637 -0.55079,-0.26953 -0.13365,-0.20579 -0.25,-0.62403 -0.25,-1.25586 0,-0.62409 0.11544,-1.0362 0.24805,-1.23828 0.13262,-0.20208 0.24287,-0.26758 0.55274,-0.26758 z m -1.59571,7.41211 v 24.32812 h 3.21094 v -0.54687 -23.78125 z m 1.09571,1.0957 h 1.02148 v 22.13672 h -1.02148 z" id="path22837"></path></g><g id="path22688"><path style="color:#000000;-inkscape-font-specification:'Open Sans Light';stroke:none;-inkscape-stroke:none" d="m 168.08746,142.82555 q 0,5.68521 -2.75712,8.89116 -2.75712,3.18458 -7.60879,3.18458 -3.05634,0 -5.38599,-1.47474 -2.32966,-1.47473 -3.56929,-4.23185 -1.23964,-2.75712 -1.23964,-6.36915 0,-5.68522 2.75712,-8.84842 2.75712,-3.18458 7.56604,-3.18458 4.78755,0 7.50192,3.22732 2.73575,3.20595 2.73575,8.80568 z m -18.33804,0 q 0,4.78755 2.09456,7.48055 2.11593,2.67162 5.96306,2.67162 3.84714,0 5.9417,-2.67162 2.11593,-2.693 2.11593,-7.48055 0,-4.80893 -2.1373,-7.45918 -2.11593,-2.65025 -5.96307,-2.65025 -3.84714,0 -5.94169,2.65025 -2.07319,2.62888 -2.07319,7.45918 z" id="path22841"></path><path style="color:#000000;-inkscape-font-specification:'Open Sans Light';stroke:none;-inkscape-stroke:none" d="m 157.84961,130.24609 c -3.32672,0 -6.03935,1.13099 -7.98047,3.37305 -1.94361,2.23105 -2.89062,5.32957 -2.89062,9.20703 0,2.47061 0.42599,4.67417 1.28906,6.59375 0.86402,1.92172 2.12914,3.42664 3.77539,4.46875 1.64446,1.041 3.55217,1.56055 5.67773,1.56055 3.35416,0 6.08141,-1.13188 8.02344,-3.375 h 0.002 c 1.94234,-2.25853 2.88868,-5.36946 2.88868,-9.24805 0,-3.82041 -0.94117,-6.90154 -2.86524,-9.1582 -1.91157,-2.27282 -4.60528,-3.42188 -7.91992,-3.42188 z m 0,1.09375 c 3.06875,0 5.3764,1.00098 7.08398,3.03125 v 0.002 l 0.002,0.002 c 1.72172,2.01764 2.60547,4.80713 2.60547,8.45117 0,3.70169 -0.89118,6.51713 -2.625,8.5332 -1.73413,2.00299 -4.08059,2.99415 -7.19532,2.99415 -1.94955,0 -3.63006,-0.46336 -5.09179,-1.38868 -1.45996,-0.92419 -2.57447,-2.2397 -3.36329,-3.99414 -0.78978,-1.75657 -1.1914,-3.7991 -1.1914,-6.14453 0,-3.70169 0.8897,-6.50383 2.62109,-8.49023 h 0.002 c 1.73504,-2.00404 4.06717,-2.9961 7.15234,-2.9961 z m -0.0859,0.83008 c -2.6904,0 -4.87368,0.96274 -6.37109,2.85742 -1.48302,1.88053 -2.18946,4.50036 -2.18946,7.79883 0,3.27149 0.71615,5.89705 2.20899,7.81641 l 0.002,0.002 0.002,0.002 c 1.51082,1.9076 3.69921,2.87891 6.39062,2.87891 2.69141,0 4.87632,-0.97178 6.37305,-2.88086 1.50793,-1.91919 2.23242,-4.54605 2.23242,-7.81836 0,-3.28587 -0.73251,-5.90822 -2.25781,-7.80078 l -0.002,-0.002 c -1.51143,-1.89171 -3.69933,-2.85352 -6.38867,-2.85352 z m 0,1.09375 c 2.43912,0 4.22542,0.80289 5.53516,2.44336 l 0.002,0.002 c 1.32335,1.64096 2.01758,3.9923 2.01758,7.11719 0,3.11109 -0.6867,5.47111 -2,7.14258 -1.29602,1.65307 -3.07362,2.46094 -5.51172,2.46094 -2.4381,0 -4.22279,-0.80833 -5.5332,-2.46289 -1.29826,-1.67111 -1.97657,-4.03074 -1.97657,-7.14063 0,-3.14192 0.67386,-5.49645 1.95508,-7.12109 1.29532,-1.63898 3.07261,-2.44141 5.51172,-2.44141 z" id="path22843"></path></g><g id="path22690"><path style="color:#000000;-inkscape-font-specification:'Open Sans Light';stroke:none;-inkscape-stroke:none" d="m 190.72145,154.47383 v -15.06796 q 0,-3.50517 -1.47474,-5.08678 -1.47474,-1.60297 -4.57382,-1.60297 -4.16774,0 -6.11268,2.11593 -1.92357,2.09455 -1.92357,6.81798 v 12.8238 h -2.11593 v -23.23245 h 1.79534 l 0.40608,3.18458 h 0.12824 q 2.26554,-3.63341 8.05762,-3.63341 7.90801,0 7.90801,8.48508 v 15.1962 z" id="path22847"></path><path style="color:#000000;-inkscape-font-specification:'Open Sans Light';stroke:none;-inkscape-stroke:none" d="m 184.9082,130.24609 c -3.47144,0 -6.08244,1.04497 -7.7832,3.02539 l -0.32617,-2.57812 h -2.82617 v 24.32812 h 3.21093 v -13.37109 c 0,-3.07374 0.63617,-5.20166 1.7793,-6.44727 1.16485,-1.26726 3.02504,-1.93945 5.71094,-1.93945 1.97171,0 3.31606,0.49768 4.16992,1.42578 l 0.002,0.002 c 0.84567,0.90695 1.32813,2.4548 1.32813,4.71484 v 15.61523 h 0.54687 2.64258 v -15.74414 c 0,-2.91334 -0.68101,-5.18905 -2.12305,-6.73632 -1.44204,-1.54727 -3.59818,-2.29493 -6.33203,-2.29493 z m 0,1.09375 c 2.53816,0 4.33729,0.66618 5.53125,1.94727 1.19396,1.28109 1.83008,3.24687 1.83008,5.99023 v 14.64844 h -1 v -14.51953 c 0,-2.41148 -0.50243,-4.2551 -1.62109,-5.45703 -1.11246,-1.20919 -2.81422,-1.7793 -4.97461,-1.7793 -2.87109,0 -5.08723,0.73704 -6.51563,2.29102 l -0.002,0.002 c -1.42098,1.54728 -2.06641,3.96428 -2.06641,7.1875 v 12.27539 h -1.02148 v -22.13672 h 0.76562 l 0.40625,3.1836 h 0.91407 l 0.16015,-0.25782 c 1.3996,-2.24462 3.84678,-3.375 7.59375,-3.375 z" id="path22849"></path></g><g id="path22692"><path style="color:#000000;-inkscape-font-specification:'Open Sans Light';stroke:none;-inkscape-stroke:none" d="m 214.4455,154.47383 -0.53433,-3.67615 h -0.17098 q -1.75259,2.24416 -3.61204,3.18457 -1.83808,0.91904 -4.36009,0.91904 -3.41968,0 -5.32188,-1.75258 -1.90219,-1.75259 -1.90219,-4.85168 0,-3.3983 2.82123,-5.27913 2.84261,-1.88082 8.20723,-1.98768 l 4.42421,-0.12824 v -1.53886 q 0,-3.31281 -1.3465,-5.00128 -1.34649,-1.68847 -4.33871,-1.68847 -3.22733,0 -6.68975,1.79533 l -0.7908,-1.83807 q 3.82576,-1.79533 7.56604,-1.79533 3.82576,0 5.70659,1.98768 1.9022,1.98769 1.9022,6.19817 v 15.45268 z m -8.5492,-1.49611 q 3.7189,0 5.8562,-2.11593 2.15867,-2.1373 2.15867,-5.92032 v -2.28691 l -4.06087,0.17099 q -4.89441,0.2351 -6.98897,1.53885 -2.07318,1.28238 -2.07318,4.01813 0,2.18004 1.32513,3.3983 1.3465,1.19689 3.78302,1.19689 z" id="path22853"></path><path style="color:#000000;-inkscape-font-specification:'Open Sans Light';stroke:none;-inkscape-stroke:none" d="m 208.39648,130.28906 c -2.58106,0 -5.18624,0.61969 -7.79882,1.84571 l -0.47852,0.2246 1.23242,2.86524 0.52149,-0.26953 c 2.2466,-1.16491 4.3874,-1.73438 6.4375,-1.73438 1.89189,0 3.13763,0.51125 3.91211,1.48242 0.78891,0.98927 1.22656,2.52575 1.22656,4.66016 v 1.00781 l -3.89258,0.11133 c -3.63527,0.0731 -6.47215,0.74223 -8.49414,2.08008 -2.00737,1.33825 -3.06641,3.31743 -3.06641,5.73437 0,2.17801 0.69376,3.97662 2.08008,5.25391 1.3883,1.2791 3.31815,1.89844 5.69141,1.89844 1.7478,0 3.29055,-0.32106 4.60547,-0.97852 h 0.002 c 1.0955,-0.55404 2.12996,-1.48214 3.13477,-2.62304 l 0.46289,3.17382 h 0.47265 2.10742 v -16 c 0,-2.88816 -0.65239,-5.10964 -2.05273,-6.57421 -1.38118,-1.45965 -3.45825,-2.15821 -6.10352,-2.15821 z m 0,1.09375 c 2.45575,0 4.18396,0.62582 5.31055,1.81641 l 0.002,0.002 c 1.13471,1.1857 1.75,3.09573 1.75,5.82031 v 14.9043 h -0.54101 l -0.5332,-3.67578 h -0.91211 l -0.16407,0.21094 c -1.1327,1.4504 -2.28152,2.452 -3.42578,3.03125 -1.13585,0.56792 -2.50036,0.86133 -4.11523,0.86133 -2.18632,0 -3.80321,-0.54975 -4.95117,-1.60743 -1.14993,-1.05949 -1.72461,-2.4951 -1.72461,-4.44922 0,-2.11358 0.8228,-3.65285 2.57617,-4.82226 1.76695,-1.16911 4.40159,-1.82648 7.91601,-1.89649 h 0.002 l 4.95703,-0.14453 v -2.07031 c 0,-2.28267 -0.45842,-4.07977 -1.46485,-5.3418 -1.02083,-1.28011 -2.66985,-1.89453 -4.76757,-1.89453 -2.07769,0 -4.21645,0.59184 -6.39453,1.63867 l -0.35157,-0.81835 c 2.31342,-1.0137 4.58931,-1.56446 6.83203,-1.56446 z m 6.0625,10.70117 -4.63281,0.19532 h -0.002 c -3.3063,0.15881 -5.70377,0.65748 -7.25,1.61914 -1.53016,0.94649 -2.33399,2.52233 -2.33399,4.48437 0,1.56422 0.49883,2.87856 1.50196,3.80078 l 0.004,0.004 0.004,0.002 c 1.02015,0.9068 2.43255,1.33594 4.14648,1.33594 2.58304,0 4.70262,-0.75314 6.24024,-2.27539 1.5538,-1.53842 2.32226,-3.68251 2.32226,-6.30859 z m -1.0957,1.14063 v 1.7168 c 0,2.41794 -0.67167,4.21994 -1.99609,5.53125 -1.31211,1.29899 -3.09521,1.95703 -5.47071,1.95703 -1.53269,0 -2.64097,-0.36937 -3.41601,-1.05664 -0.7602,-0.70165 -1.14453,-1.65084 -1.14453,-2.99024 0,-1.68562 0.57842,-2.78938 1.8125,-3.55273 h 0.002 v -0.002 c 1.24658,-0.77592 3.5083,-1.30244 6.72656,-1.45703 l -0.004,0.002 z" id="path22855"></path></g><g id="path22694"><path style="color:#000000;-inkscape-font-specification:'Open Sans Light';stroke:none;-inkscape-stroke:none" d="m 225.62355,154.47383 h -2.11593 v -33.25638 h 2.11593 z" id="path22859"></path><path style="color:#000000;-inkscape-font-specification:'Open Sans Light';stroke:none;-inkscape-stroke:none" d="m 222.96094,120.66992 v 34.35156 h 3.20898 v -0.54687 -33.80469 z m 1.09375,1.09375 h 1.02148 v 32.16211 h -1.02148 z" id="path22861"></path></g></g></g></svg>