<svg xmlns:inkscape="http://www.inkscape.org/namespaces/inkscape" xmlns:sodipodi="http://sodipodi.sourceforge.net/DTD/sodipodi-0.dtd" xmlns="http://www.w3.org/2000/svg" xmlns:svg="http://www.w3.org/2000/svg" width="112.74615" height="41.903999" id="svg1461" sodipodi:docname="ampproject-ar21.svg" inkscape:version="1.1.1 (c3084ef, 2021-09-22)"><defs id="defs1465"></defs><g id="g1601" transform="translate(-3.6259995,-9.0480003)"><g fill="#0479c2" id="g1455" style="fill:#0e0e10;fill-opacity:1"><path d="M 64.3,22.023 H 60.14 L 53.165,39.82 h 3.674 c 0,0 0.74,-0.33 1.18,-1.4 l 0.805,-2.57 h 6.808 l 0.805,2.57 c 0.44,1.07 1.18,1.4 1.18,1.4 h 3.674 z m -4.524,11.033 2.45,-7.26 2.45,7.26 z M 96.384,22.023 V 39.82 H 92.72 V 28.136 l -4.524,8.805 c 0,0 -0.552,1.158 -1.82,1.026 h -0.1 c -1.27,0.143 -1.82,-1.026 -1.82,-1.026 L 79.932,28.136 V 39.82 H 76.258 V 22.023 h 3.586 c 0.827,0.01 0.938,0.684 0.938,0.684 l 5.55,10.978 5.55,-10.978 c 0,0 0.1,-0.673 0.938,-0.684 z m 19.196,2.837 c -1.655,-3.2 -8.75,-2.836 -8.75,-2.836 h -3.94 V 39.82 h 4.05 l 0.143,-5.958 c 6.73,0.188 7.756,-1.876 7.756,-1.876 2.946,-2.902 0.74,-7.128 0.74,-7.128 z m -5.78,5.88 H 107 v -5.517 c 0,-0.364 3.178,-0.022 3.487,0.077 0.706,0.22 1.346,0.662 1.556,1.4 0.52,1.82 -0.188,3.773 -2.25,4.038 z" id="path1451" style="fill:#0e0e10;fill-opacity:1"></path><circle r="20.952" cy="30" cx="24.577999" id="circle1453" style="fill:#0e0e10;fill-opacity:1"></circle></g><path d="m 26.144,26.834 h 5.075 c 0,0 1.07,0 0.52,1.214 l -8.75,14.564 h -1.622 l 1.545,-9.522 -5.153,-0.033 c 0,0 -0.916,-0.364 -0.22,-1.545 l 8.606,-14.233 h 1.688 z" fill="#fff" id="path1457" style="fill:#ffffff;fill-opacity:1"></path><path d="M 61.34,33.377 Z" fill="#0479c2" id="path1459" style="fill:#0e0e10;fill-opacity:1"></path></g></svg>