<svg xmlns:inkscape="http://www.inkscape.org/namespaces/inkscape" xmlns:sodipodi="http://sodipodi.sourceforge.net/DTD/sodipodi-0.dtd" xmlns="http://www.w3.org/2000/svg" xmlns:svg="http://www.w3.org/2000/svg" id="svg3386" width="1004.0963" height="331.72806" viewBox="-1.005 -1.005 101.4 33.464953" sodipodi:docname="Cloudflare_logo.svg" inkscape:version="1.1.1 (c3084ef, 2021-09-22)"><defs id="defs3388"></defs><g id="g3816" transform="translate(-1.005,-1.0235937)"><g id="g3809"><path style="fill:#ffffff;fill-opacity:1" id="path3358" d="M 94.7,10.6 89.1,9.3 88.1,8.9 62.4,9.1 v 12.4 l 32.3,0.1 z" class="st0"></path><path style="fill:#0e0e10;fill-opacity:1" id="path3360" d="m 84.2,20.4 c 0.3,-1 0.2,-2 -0.3,-2.6 -0.5,-0.6 -1.2,-1 -2.1,-1.1 L 64.4,16.5 c -0.1,0 -0.2,-0.1 -0.3,-0.1 -0.1,-0.1 -0.1,-0.2 0,-0.3 0.1,-0.2 0.2,-0.3 0.4,-0.3 L 82,15.6 c 2.1,-0.1 4.3,-1.8 5.1,-3.8 l 1,-2.6 C 88.1,9.1 88.2,9 88.1,8.9 87,3.8 82.4,0 77,0 72,0 67.7,3.2 66.2,7.7 65.2,7 64,6.6 62.6,6.7 60.2,6.9 58.3,8.9 58,11.3 c -0.1,0.6 0,1.2 0.1,1.8 -3.9,0.1 -7.1,3.3 -7.1,7.3 0,0.4 0,0.7 0.1,1.1 0,0.2 0.2,0.3 0.3,0.3 h 32.1 c 0.2,0 0.4,-0.1 0.4,-0.3 z" class="st1"></path><path style="fill:#0e0e10;fill-opacity:1" id="path3362" d="m 89.7,9.2 h -0.5 c -0.1,0 -0.2,0.1 -0.3,0.2 l -0.7,2.4 c -0.3,1 -0.2,2 0.3,2.6 0.5,0.6 1.2,1 2.1,1.1 l 3.7,0.2 c 0.1,0 0.2,0.1 0.3,0.1 0.1,0.1 0.1,0.2 0,0.3 -0.1,0.2 -0.2,0.3 -0.4,0.3 l -3.8,0.2 c -2.1,0.1 -4.3,1.8 -5.1,3.8 l -0.2,0.9 c -0.1,0.1 0,0.3 0.2,0.3 h 13.2 c 0.2,0 0.3,-0.1 0.3,-0.3 0.2,-0.8 0.4,-1.7 0.4,-2.6 0,-5.2 -4.3,-9.5 -9.5,-9.5" class="st2"></path><path style="fill:#0e0e10;fill-opacity:1" id="path3364" d="m 100.5,27.2 c -0.5,0 -0.9,-0.4 -0.9,-0.9 0,-0.5 0.4,-0.9 0.9,-0.9 0.5,0 0.9,0.4 0.9,0.9 0,0.5 -0.4,0.9 -0.9,0.9 m 0,-1.6 c -0.4,0 -0.7,0.3 -0.7,0.7 0,0.4 0.3,0.7 0.7,0.7 0.4,0 0.7,-0.3 0.7,-0.7 0,-0.4 -0.3,-0.7 -0.7,-0.7 m 0.4,1.2 h -0.2 l -0.2,-0.3 h -0.2 v 0.3 h -0.2 v -0.9 h 0.5 c 0.2,0 0.3,0.1 0.3,0.3 0,0.1 -0.1,0.2 -0.2,0.3 z m -0.3,-0.5 c 0.1,0 0.1,0 0.1,-0.1 0,-0.1 -0.1,-0.1 -0.1,-0.1 h -0.3 v 0.3 h 0.3 z M 10.9,25.4 h 2.2 v 6 h 3.8 v 1.9 h -6 z m 8.3,3.9 c 0,-2.3 1.8,-4.1 4.3,-4.1 2.5,0 4.2,1.8 4.2,4.1 0,2.3 -1.8,4.1 -4.3,4.1 -2.4,0 -4.2,-1.8 -4.2,-4.1 m 6.3,0 c 0,-1.2 -0.8,-2.2 -2,-2.2 -1.2,0 -2,1 -2,2.1 0,1.1 0.8,2.1 2,2.1 1.2,0.2 2,-0.8 2,-2 m 4.9,0.5 v -4.4 h 2.2 v 4.4 c 0,1.1 0.6,1.7 1.5,1.7 0.9,0 1.5,-0.5 1.5,-1.6 v -4.5 h 2.2 v 4.4 c 0,2.6 -1.5,3.7 -3.7,3.7 -2.3,-0.1 -3.7,-1.2 -3.7,-3.7 m 10.7,-4.4 h 3.1 c 2.8,0 4.5,1.6 4.5,3.9 0,2.3 -1.7,4 -4.5,4 h -3 v -7.9 z m 3.1,5.9 c 1.3,0 2.2,-0.7 2.2,-2 0,-1.3 -0.9,-2 -2.2,-2 h -0.9 v 4 z m 7.6,-5.9 h 6.3 v 1.9 H 54 v 1.3 h 3.7 v 1.8 H 54 v 2.9 h -2.2 z m 9.4,0 h 2.2 v 6 h 3.8 v 1.9 h -6 z m 11.7,-0.1 h 2.2 l 3.4,8 h -2.4 l -0.6,-1.4 h -3.1 l -0.6,1.4 h -2.3 z m 2,4.9 L 74,28 73.1,30.2 Z m 6.4,-4.8 H 85 c 1.2,0 2,0.3 2.6,0.9 0.5,0.5 0.7,1.1 0.7,1.8 0,1.2 -0.6,2 -1.6,2.4 l 1.9,2.8 h -2.5 l -1.6,-2.4 h -1 v 2.4 h -2.2 z m 3.6,3.8 c 0.7,0 1.2,-0.4 1.2,-0.9 0,-0.6 -0.5,-0.9 -1.2,-0.9 h -1.4 v 1.9 h 1.4 z m 6.5,-3.8 h 6.4 v 1.8 h -4.2 v 1.2 h 3.8 v 1.8 h -3.8 v 1.2 h 4.3 v 1.9 H 91.4 Z M 6.1,30.3 c -0.3,0.7 -1,1.2 -1.8,1.2 -1.2,0 -2,-1 -2,-2.1 0,-1.1 0.8,-2.1 2,-2.1 0.9,0 1.6,0.6 1.9,1.3 H 8.5 C 8.1,26.7 6.5,25.3 4.3,25.3 1.9,25.3 0,27.1 0,29.4 c 0,2.3 1.8,4.1 4.2,4.1 2.1,0 3.7,-1.4 4.2,-3.2 z" class="st3"></path></g></g></svg>