<svg xmlns:inkscape="http://www.inkscape.org/namespaces/inkscape" xmlns:sodipodi="http://sodipodi.sourceforge.net/DTD/sodipodi-0.dtd" xmlns="http://www.w3.org/2000/svg" xmlns:svg="http://www.w3.org/2000/svg" width="127.98572mm" height="18.448067mm" viewBox="0 0 127.98572 18.448067" id="svg1278" inkscape:version="1.1.1 (c3084ef, 2021-09-22)" sodipodi:docname="cloutnetlogo.svg"><defs id="defs1275"></defs><g inkscape:label="Ebene 1" inkscape:groupmode="layer" id="layer1" transform="translate(-67.637542,-114.32797)"><g id="g28171-3-51-8-9-0" style="font-weight:700;font-size:83.6563px;font-family:HelveticaNeue-Bold, 'Helvetica Neue';letter-spacing:-0.06em;fill:#4687ff;fill-opacity:1;stroke-width:1.56856" transform="matrix(0.32192995,0,0,0.32192995,45.427171,-569.21482)"><path d="m 99.776837,2151.4578 h 11.628223 q -0.25097,-4.1828 -2.00775,-7.1944 -1.75678,-3.0953 -4.60109,-5.1031 -2.76066,-2.0914 -6.357884,-3.0953 -3.513564,-1.0038 -7.361754,-1.0038 -5.270348,0 -9.369506,1.7568 -4.099159,1.7567 -6.943474,4.9357 -2.844314,3.0953 -4.350127,7.4454 -1.422158,4.2665 -1.422158,9.2858 0,4.8521 1.58947,8.9513 1.58947,4.0155 4.433784,6.9434 2.844315,2.928 6.859817,4.6011 4.099159,1.5895 8.951225,1.5895 8.616599,0 14.137917,-4.5174 5.52131,-4.5175 6.6925,-13.1341 h -11.46091 q -0.585595,4.0155 -2.927972,6.4416 -2.25872,2.3423 -6.525192,2.3423 -2.760658,0 -4.684753,-1.2548 -1.924095,-1.2549 -3.095283,-3.179 -1.087532,-2.0077 -1.58947,-4.4337 -0.501937,-2.4261 -0.501937,-4.7684 0,-2.4261 0.501937,-4.8521 0.501938,-2.5097 1.673126,-4.5175 1.254845,-2.0914 3.17894,-3.3462 1.924095,-1.3385 4.768409,-1.3385 7.612724,0 8.783912,7.4454 z" style="font-family:'Helvetica Neue';-inkscape-font-specification:'Helvetica Neue Bold';fill:#abb8c3;fill-opacity:1" id="path91517-5-0-7-7-3-5-56-2"></path><path d="m 113.68208,2124.6833 v 55.8869 h 11.8792 v -55.8869 z" style="font-family:'Helvetica Neue';-inkscape-font-specification:'Helvetica Neue Bold';fill:#abb8c3;fill-opacity:1;stroke-width:1.51725" id="path91519-7-2-1-5-9-6-2-4"></path><path d="m 140.43642,2157.8993 q 0,-2.5933 0.50193,-5.103 0.50194,-2.5097 1.67313,-4.4338 1.25484,-1.9241 3.26259,-3.0953 2.00776,-1.2548 5.01938,-1.2548 3.01163,0 5.01938,1.2548 2.09141,1.1712 3.2626,3.0953 1.25484,1.9241 1.75678,4.4338 0.50194,2.5097 0.50194,5.103 0,2.5934 -0.50194,5.1031 -0.50194,2.426 -1.75678,4.4338 -1.17119,1.9241 -3.2626,3.0952 -2.00775,1.1712 -5.01938,1.1712 -3.01162,0 -5.01938,-1.1712 -2.00775,-1.1711 -3.26259,-3.0952 -1.17119,-2.0078 -1.67313,-4.4338 -0.50193,-2.5097 -0.50193,-5.1031 z m -11.8792,0 q 0,5.1867 1.58947,9.3695 1.58947,4.1829 4.51744,7.1945 2.92797,2.928 7.02713,4.5174 4.09916,1.5895 9.20219,1.5895 5.10304,0 9.2022,-1.5895 4.18281,-1.5894 7.11078,-4.5174 2.92797,-3.0116 4.51744,-7.1945 1.58947,-4.1828 1.58947,-9.3695 0,-5.1867 -1.58947,-9.3695 -1.58947,-4.2664 -4.51744,-7.1944 -2.92797,-3.0116 -7.11078,-4.6011 -4.09916,-1.6731 -9.2022,-1.6731 -5.10303,0 -9.20219,1.6731 -4.09916,1.5895 -7.02713,4.6011 -2.92797,2.928 -4.51744,7.1944 -1.58947,4.1828 -1.58947,9.3695 z" style="font-family:'Helvetica Neue';-inkscape-font-specification:'Helvetica Neue Bold';fill:#abb8c3;fill-opacity:1" id="path91521-3-3-5-7-7-7-8-8"></path><path d="m 216.5911,2179.4827 v -43.2503 h -11.8792 v 22.6708 q 0,6.6089 -2.17506,9.5368 -2.17506,2.8443 -7.02713,2.8443 -4.26647,0 -5.9396,-2.5933 -1.67312,-2.677 -1.67312,-8.031 v -24.4276 h -11.8792 v 26.6027 q 0,4.0155 0.66925,7.3617 0.75291,3.2626 2.50969,5.605 1.75678,2.2587 4.76841,3.5136 3.09528,1.2548 7.86369,1.2548 3.76454,0 7.36176,-1.6731 3.59722,-1.6732 5.85594,-5.4377 h 0.25097 v 6.0233 z" style="letter-spacing:-3px;fill:#abb8c3;fill-opacity:1" id="path91523-4-9-2-2-3-9-59-3"></path><path d="m 237.74685,2136.2324 v -12.9668 h -11.87919 v 12.9668 h -7.19444 v 7.9473 h 7.19444 v 25.5152 q 0,3.2626 1.08753,5.2703 1.08753,2.0078 2.92797,3.0953 1.9241,1.0875 4.35013,1.4222 2.50969,0.4182 5.27035,0.4182 1.75678,0 3.59722,-0.084 1.84044,-0.084 3.34625,-0.3346 v -9.2022 q -0.83656,0.1673 -1.75678,0.2509 -0.92022,0.084 -1.9241,0.084 -3.01162,0 -4.0155,-1.0039 -1.00388,-1.0039 -1.00388,-4.0155 v -21.416 h 8.70026 v -7.9473 z" style="letter-spacing:-3px;fill:#abb8c3;fill-opacity:1" id="path91525-3-97-1-9-7-4-4-9"></path><path d="m 249.09914,2136.2324 v 43.2503 h 11.87919 v -22.6709 q 0,-6.6088 2.17506,-9.4532 2.17507,-2.9279 7.02713,-2.9279 4.26648,0 5.9396,2.677 1.67313,2.5933 1.67313,7.9473 v 24.4277 h 11.87919 V 2152.88 q 0,-4.0155 -0.7529,-7.2781 -0.66925,-3.3463 -2.42604,-5.605 -1.75678,-2.3424 -4.85206,-3.5972 -3.01163,-1.3385 -7.78004,-1.3385 -3.76453,0 -7.36175,1.7568 -3.59722,1.6731 -5.85594,5.4376 h -0.25097 v -6.0232 z" style="letter-spacing:-3px;fill:#abb8c3;fill-opacity:1" id="path91527-0-03-1-7-5-1-3-0"></path><path d="m 324.88246,2153.2146 h -19.32461 q 0.0837,-1.2549 0.50194,-2.8443 0.50194,-1.5895 1.58947,-3.0117 1.17119,-1.4221 3.01163,-2.3423 1.92409,-1.0039 4.76841,-1.0039 4.35012,0 6.44153,2.3424 2.17507,2.3423 3.01163,6.8598 z m -19.32461,7.5291 h 31.2038 q 0.33463,-5.0194 -0.83656,-9.6205 -1.17119,-4.6011 -3.84819,-8.1983 -2.59334,-3.5973 -6.6925,-5.6887 -4.09916,-2.175 -9.62048,-2.175 -4.93572,0 -9.03488,1.7568 -4.0155,1.7567 -6.94347,4.852 -2.92797,3.0116 -4.51744,7.1945 -1.58947,4.1828 -1.58947,9.0348 0,5.0194 1.50581,9.2022 1.58947,4.1828 4.43378,7.1945 2.84432,3.0116 6.94348,4.6847 4.09916,1.5895 9.20219,1.5895 7.36176,0 12.54845,-3.3463 5.18669,-3.3462 7.69638,-11.1262 h -10.45704 q -0.5856,2.0077 -3.17894,3.8481 -2.59335,1.7568 -6.19057,1.7568 -5.01938,0 -7.69638,-2.5933 -2.677,-2.5934 -2.92797,-8.3656 z" style="font-family:'Helvetica Neue';-inkscape-font-specification:'Helvetica Neue Bold';fill:#abb8c3;fill-opacity:1" id="path91529-4-9-0-5-0-6-9-5"></path><path d="m 353.84584,2136.2324 v -12.9668 h -11.8792 v 12.9668 h -7.19444 v 7.9473 h 7.19444 v 25.5152 q 0,3.2626 1.08754,5.2703 1.08753,2.0078 2.92797,3.0953 1.92409,1.0875 4.35012,1.4222 2.50969,0.4182 5.27035,0.4182 1.75678,0 3.59722,-0.084 1.84044,-0.084 3.34625,-0.3346 v -9.2022 q -0.83656,0.1673 -1.75678,0.2509 -0.92022,0.084 -1.92409,0.084 -3.01163,0 -4.01551,-1.0039 -1.00387,-1.0039 -1.00387,-4.0155 v -21.416 h 8.70025 v -7.9473 z" style="font-family:'Helvetica Neue';-inkscape-font-specification:'Helvetica Neue Bold';fill:#abb8c3;fill-opacity:1" id="path91531-8-8-1-6-2-1-0-2"></path><path d="m 365.68069,2166.5996 v 12.8831 h 13.13404 v -12.8831 z" style="font-family:'Helvetica Neue';-inkscape-font-specification:'Helvetica Neue Bold';fill:#abb8c3;fill-opacity:1" id="path91533-7-6-8-5-1-2-56-2"></path><path d="m 409.82,2158.6367 q 0,2.4925 -0.46734,4.8292 -0.46735,2.3368 -1.55782,4.2062 -1.09047,1.7915 -2.95985,2.8819 -1.79149,1.0904 -4.51767,1.0904 -2.5704,0 -4.43978,-1.0904 -1.79148,-1.1684 -3.03774,-2.9599 -1.16836,-1.8693 -1.71359,-4.206 -0.54524,-2.3368 -0.54524,-4.6735 0,-2.4925 0.46735,-4.7514 0.54523,-2.3367 1.6357,-4.1281 1.16836,-1.7915 3.03775,-2.882 1.86937,-1.0905 4.59555,-1.0905 2.72618,0 4.51767,1.0905 1.79148,1.0905 2.88196,2.882 1.16836,1.7136 1.63571,4.0502 0.46734,2.2589 0.46734,4.7514 z m 0.15578,15.1108 v 5.1409 h 10.51525 v -55.6141 h -11.06048 v 20.2516 h -0.15579 q -1.86938,-2.9599 -5.14079,-4.4398 -3.19353,-1.5578 -6.7765,-1.5578 -4.43978,0 -7.78908,1.7915 -3.3493,1.7136 -5.60813,4.5955 -2.18095,2.882 -3.3493,6.6986 -1.09048,3.7388 -1.09048,7.7892 0,4.206 1.09048,8.1005 1.16835,3.8945 3.3493,6.9323 2.25883,2.9599 5.68602,4.7514 3.4272,1.7136 7.94486,1.7136 3.97243,0 7.08806,-1.402 3.19353,-1.48 5.1408,-4.7514 z" style="font-family:'Helvetica Neue';-inkscape-font-specification:'Helvetica Neue Bold';fill:#abb8c3;fill-opacity:1;stroke-width:1.46046" id="path91535-5-5-7-3-87-0-3-7"></path><path d="M 454.59541,2153.2146 H 435.2708 q 0.0837,-1.2549 0.50194,-2.8443 0.50194,-1.5895 1.58947,-3.0117 1.17119,-1.4221 3.01163,-2.3423 1.92409,-1.0039 4.76841,-1.0039 4.35013,0 6.44153,2.3424 2.17507,2.3423 3.01163,6.8598 z m -19.32461,7.5291 h 31.20381 q 0.33462,-5.0194 -0.83657,-9.6205 -1.17119,-4.6011 -3.84819,-8.1983 -2.59334,-3.5973 -6.6925,-5.6887 -4.09916,-2.175 -9.62048,-2.175 -4.93572,0 -9.03488,1.7568 -4.0155,1.7567 -6.94347,4.852 -2.92797,3.0116 -4.51744,7.1945 -1.58947,4.1828 -1.58947,9.0348 0,5.0194 1.50581,9.2022 1.58947,4.1828 4.43379,7.1945 2.84431,3.0116 6.94347,4.6847 4.09916,1.5895 9.20219,1.5895 7.36176,0 12.54845,-3.3463 5.18669,-3.3462 7.69638,-11.1262 h -10.45704 q -0.58559,2.0077 -3.17894,3.8481 -2.59334,1.7568 -6.19057,1.7568 -5.01937,0 -7.69638,-2.5933 -2.677,-2.5934 -2.92797,-8.3656 z" style="font-family:'Helvetica Neue';-inkscape-font-specification:'Helvetica Neue Bold';fill:#abb8c3;fill-opacity:1" id="path91537-9-7-6-0-1-4-6-3"></path></g></g></svg>