<svg xmlns:inkscape="http://www.inkscape.org/namespaces/inkscape" xmlns:sodipodi="http://sodipodi.sourceforge.net/DTD/sodipodi-0.dtd" xmlns="http://www.w3.org/2000/svg" xmlns:svg="http://www.w3.org/2000/svg" id="katman_1" data-name="katman 1" viewBox="0 0 717.92 319.38" sodipodi:docname="Google Partner.svg" inkscape:version="1.1.1 (c3084ef, 2021-09-22)"><defs id="defs1367"><style id="style1365">      .cls-1 {        fill: #7d7a79;      }      .cls-2 {        fill: none;      }      .cls-3 {        fill: #5679b8;      }      .cls-4 {        fill: #d33e2e;      }      .cls-5 {        fill: #2a9c48;      }      .cls-6 {        fill: #f0ba36;      }    </style></defs><g id="g1405" style="fill:#000000"><g id="g1381" style="fill:#0e0e10;fill-opacity:1"><path class="cls-1" d="M258.91,403.63v51.94H242.44V327.34h43.69q16.67,0,28.3,11.1a37.06,37.06,0,0,1,0,54.27q-11.46,10.92-28.3,10.92Zm0-60.53v44.77h27.58a21.77,21.77,0,0,0,16.3-6.63,22.47,22.47,0,0,0-16.3-38.14Z" transform="translate(-90.08 -178.32)" id="path1369" style="fill:#0e0e10;fill-opacity:1"></path><path class="cls-1" d="M370.31,365q18.27,0,28.83,9.76t10.57,26.77v54.09H394V443.39h-.72q-10.2,15-27.22,15-14.5,0-24.27-8.59A27.45,27.45,0,0,1,332,428.35q0-13.62,10.3-21.67t27.49-8.06q14.69,0,24.18,5.37v-3.76a18.76,18.76,0,0,0-6.81-14.6,23.35,23.35,0,0,0-15.94-6q-13.79,0-21.85,11.64l-14.5-9.13Q346.85,365,370.31,365ZM349,428.7a13.14,13.14,0,0,0,5.46,10.75,20.07,20.07,0,0,0,12.8,4.3q10.39,0,18.54-7.7T394,418q-7.71-6.09-21.49-6.09-10,0-16.75,4.83T349,428.7Z" transform="translate(-90.08 -178.32)" id="path1371" style="fill:#0e0e10;fill-opacity:1"></path><path class="cls-1" d="M428.33,367.81h15.76v14.33h.72q7.33-16.83,30.27-16.83l3.4.35v17.2l-7.35-.72q-11.46,0-18.89,7.08t-7.43,18v48.36H428.33ZM531.13,457q-10.74,0-17.82-6.62t-7.25-18.45V382.86h-15.4V367.81h15.4V341h16.47v26.86H544v15.05h-21.5v43.7q0,8.78,3.41,11.9a11,11,0,0,0,7.7,3.14,16.54,16.54,0,0,0,3.85-.45A19.84,19.84,0,0,0,541,440l5.19,14.68A44.25,44.25,0,0,1,531.13,457Z" transform="translate(-90.08 -178.32)" id="path1373" style="fill:#0e0e10;fill-opacity:1"></path><path class="cls-1" d="M560.68,367.81h15.76V380h.71a29.24,29.24,0,0,1,11.56-10.74,33,33,0,0,1,16.2-4.3q16.13,0,24.81,9.22t8.68,26.24v55.16H621.93V401.48Q621.39,380,600.26,380q-9.85,0-16.48,8A28.87,28.87,0,0,0,577.15,407v48.54H560.68Z" transform="translate(-90.08 -178.32)" id="path1375" style="fill:#0e0e10;fill-opacity:1"></path><path class="cls-1" d="M697.14,458.43q-19.33,0-31.87-13.25t-12.54-33.49q0-20.06,12.18-33.4T696.07,365q19.51,0,31.07,12.62t11.55,35.37l-.18,1.8h-69q.36,12.88,8.6,20.77a27.47,27.47,0,0,0,19.7,7.88q15.76,0,24.71-15.76l14.69,7.16a43.72,43.72,0,0,1-16.39,17.38A45.37,45.37,0,0,1,697.14,458.43Zm-26.32-57.31h50.32A21.86,21.86,0,0,0,713.71,386q-6.72-6-18-6a23.89,23.89,0,0,0-16,5.73A27.44,27.44,0,0,0,670.82,401.12Z" transform="translate(-90.08 -178.32)" id="path1377" style="fill:#0e0e10;fill-opacity:1"></path><path class="cls-1" d="M770.21,455.57H753.73V367.81H769.5v14.33h.71q2.5-7,10.3-11.91t15.31-4.92A30.73,30.73,0,0,1,808,367.46l-5,15.93q-3.06-1.25-9.67-1.25-9.32,0-16.21,7.52a25.16,25.16,0,0,0-6.9,17.55Z" transform="translate(-90.08 -178.32)" id="path1379" style="fill:#0e0e10;fill-opacity:1"></path></g><path class="cls-2" d="M348.48,254.7a13.92,13.92,0,0,0-10.58,4.6,15.56,15.56,0,0,0-4.3,11.38,16,16,0,0,0,4.3,11.39,14.38,14.38,0,0,0,21.07,0,16.05,16.05,0,0,0,4.4-11.39,15.61,15.61,0,0,0-4.3-11.38A13.93,13.93,0,0,0,348.48,254.7Z" transform="translate(-90.08 -178.32)" id="path1383" style="fill:none;fill-opacity:1"></path><path class="cls-2" d="M463.74,254.7a13.77,13.77,0,0,0-10.38,4.7,17.24,17.24,0,0,0-.1,22.67,13.79,13.79,0,0,0,10.48,4.59,13,13,0,0,0,10-4.49,18,18,0,0,0,0-22.87A12.7,12.7,0,0,0,463.74,254.7Z" transform="translate(-90.08 -178.32)" id="path1385" style="fill:none;fill-opacity:1"></path><path class="cls-2" d="M406.21,254.7a13.92,13.92,0,0,0-10.58,4.6,15.56,15.56,0,0,0-4.3,11.38,16,16,0,0,0,4.3,11.39,14.38,14.38,0,0,0,21.07,0,16.05,16.05,0,0,0,4.4-11.39,15.61,15.61,0,0,0-4.3-11.38A13.93,13.93,0,0,0,406.21,254.7Z" transform="translate(-90.08 -178.32)" id="path1387" style="fill:none;fill-opacity:1"></path><path class="cls-2" d="M544.55,256.05a12.05,12.05,0,0,0-6.1-1.55,13.58,13.58,0,0,0-9.79,4.4,14.43,14.43,0,0,0-4,11l23.57-9.78A8.13,8.13,0,0,0,544.55,256.05Z" transform="translate(-90.08 -178.32)" id="path1389" style="fill:none;fill-opacity:1"></path><path class="cls-3" d="M279.77,252.41v11.18h26.76q-1.29,10.59-8.78,16.48-7.31,5.81-18,5.8a28.06,28.06,0,0,1-20.88-8.69,30.4,30.4,0,0,1,0-42.15,28,28,0,0,1,20.88-8.69,28.63,28.63,0,0,1,20.17,8l7.89-7.89a39.37,39.37,0,0,0-28.06-11.29A41.33,41.33,0,0,0,259,220.74a40.54,40.54,0,0,0-15.28,15.09,40.37,40.37,0,0,0,0,40.65,39.85,39.85,0,0,0,15.28,15,41.23,41.23,0,0,0,20.78,5.59q16.58,0,27.46-10.39T318,259.4a35.84,35.84,0,0,0-.6-7Z" transform="translate(-90.08 -178.32)" id="path1391" style="fill:#0e0e10;fill-opacity:1"></path><path class="cls-4" d="M348.48,244.32a25.62,25.62,0,0,0-18.87,7.59A25.28,25.28,0,0,0,322,270.68a26.47,26.47,0,1,0,52.93,0,25.1,25.1,0,0,0-7.69-18.77A25.51,25.51,0,0,0,348.48,244.32ZM359,282.07a14.38,14.38,0,0,1-21.07,0,16,16,0,0,1-4.3-11.39,15.56,15.56,0,0,1,4.3-11.38,14.48,14.48,0,0,1,21.17,0,15.61,15.61,0,0,1,4.3,11.38A16.05,16.05,0,0,1,359,282.07Z" transform="translate(-90.08 -178.32)" id="path1393" style="fill:#0e0e10;stroke:none;fill-opacity:1"></path><rect class="cls-5" x="405.93" y="39.63" width="11.59" height="77.51" id="rect1395" style="fill:#0e0e10;fill-opacity:1"></rect><path class="cls-6" d="M406.21,244.32a25.62,25.62,0,0,0-18.87,7.59,25.28,25.28,0,0,0-7.59,18.77,26.47,26.47,0,1,0,52.93,0A25.1,25.1,0,0,0,425,251.91,25.51,25.51,0,0,0,406.21,244.32Zm10.49,37.75a14.38,14.38,0,0,1-21.07,0,16,16,0,0,1-4.3-11.39,15.56,15.56,0,0,1,4.3-11.38,14.48,14.48,0,0,1,21.17,0,15.61,15.61,0,0,1,4.3,11.38A16.05,16.05,0,0,1,416.7,282.07Z" transform="translate(-90.08 -178.32)" id="path1397" style="fill:#0e0e10;fill-opacity:1"></path><path class="cls-4" d="M539.35,286.66q-8.69,0-12.78-8l35.25-14.58-1.19-3a29.21,29.21,0,0,0-3.65-6.8,26.36,26.36,0,0,0-5.14-5.34,22.14,22.14,0,0,0-6.4-3.45,22.58,22.58,0,0,0-7.39-1.19,23.66,23.66,0,0,0-17.78,7.49q-7.08,7.59-7.09,18.87a25.7,25.7,0,0,0,7.49,18.78,25.19,25.19,0,0,0,18.68,7.59q14,0,22-11.68l-9-6Q547.44,286.66,539.35,286.66ZM528.66,258.9a13.58,13.58,0,0,1,9.79-4.4,12.05,12.05,0,0,1,6.1,1.55,8.13,8.13,0,0,1,3.69,4.05l-23.57,9.78A14.43,14.43,0,0,1,528.66,258.9Z" transform="translate(-90.08 -178.32)" id="path1399" style="fill:#0e0e10;fill-opacity:1"></path><path class="cls-3" d="M477,250.21h-.4q-5-5.9-13.88-5.89A24,24,0,0,0,445,252.11a26.9,26.9,0,0,0,0,37.25q7.68,7.69,17.78,7.69,8.88,0,13.88-6h.4v2.69q0,16.59-14.08,16.58a13.07,13.07,0,0,1-8-2.59,16.29,16.29,0,0,1-5.29-6.79l-10.09,4.19a26.88,26.88,0,0,0,3.8,6.34,24.17,24.17,0,0,0,5.34,4.9,26.09,26.09,0,0,0,6.64,3.19,24.71,24.71,0,0,0,7.6,1.15q11.78,0,18.42-7.14T488,293.26V245.91H477Zm-3.3,32a13,13,0,0,1-10,4.49,13.79,13.79,0,0,1-10.48-4.59,17.24,17.24,0,0,1,.1-22.67,13.77,13.77,0,0,1,10.38-4.7,12.7,12.7,0,0,1,10,4.6,18,18,0,0,1,0,22.87Z" transform="translate(-90.08 -178.32)" id="path1401" style="fill:#0e0e10;fill-opacity:1"></path><rect class="cls-3" width="84.05" height="319.38" id="rect1403" style="fill:#0e0e10;fill-opacity:1"></rect></g></svg>