<svg xmlns:inkscape="http://www.inkscape.org/namespaces/inkscape" xmlns:sodipodi="http://sodipodi.sourceforge.net/DTD/sodipodi-0.dtd" xmlns:xlink="http://www.w3.org/1999/xlink" xmlns="http://www.w3.org/2000/svg" xmlns:svg="http://www.w3.org/2000/svg" width="878.32489" height="191.6423" viewBox="0 0 878.32489 191.6423" xml:space="preserve" id="svg2781" sodipodi:docname="Pipedrive_Logo.svg" inkscape:version="1.1.1 (c3084ef, 2021-09-22)"><defs id="defs2785"></defs><style type="text/css" id="style2743">	.st0{clip-path:url(#SVGID_2_);fill:#203232;}</style><g transform="matrix(1.4291,0,0,1.4291,-110.89816,-86.746371)" id="g2779">	<defs id="defs2746">		<rect id="SVGID_1_" width="755.79999" height="253.2" x="0" y="0"></rect>	</defs>	<clipPath id="SVGID_2_">		<use width="100%" height="100%" xlink:href="#SVGID_1_" id="use2748" x="0" y="0"></use>	</clipPath><g fill="#203232" id="g2777">													<g id="g2897"><path class="st0" d="m 128.3,87.8 c -11.9,0 -18.8,5.4 -22.1,9 -0.4,-3.2 -2.5,-7.3 -10.7,-7.3 H 77.6 v 18.6 h 7.3 c 1.2,0 1.6,0.4 1.6,1.6 v 85.1 h 21.2 V 163 160.6 c 3.3,3 9.6,7.2 19.5,7.2 20.7,0 35.2,-16.4 35.2,-40 0.1,-23.9 -13.7,-40 -34.1,-40 m -4.3,61.5 c -11.4,0 -16.6,-10.9 -16.6,-21.1 0,-16 8.7,-21.7 16.9,-21.7 10,0 16.8,8.6 16.8,21.5 -0.1,14.8 -8.7,21.3 -17.1,21.3" clip-path="url(#SVGID_2_)" id="path2751" style="fill:#0e0e10;fill-opacity:1"></path><path class="st0" d="m 191,146 v -45.1 c 0,-7.6 -3.7,-11.3 -11.2,-11.3 h -19 v 18.6 h 7.3 c 1.2,0 1.6,0.4 1.6,1.6 v 44.9 c 0,7.7 3.6,11.3 11.2,11.3 h 19 v -18.5 h -7.3 c -1.1,0.1 -1.6,-0.4 -1.6,-1.5" clip-path="url(#SVGID_2_)" id="path2753" style="fill:#0e0e10;fill-opacity:1"></path><path class="st0" d="m 246.4,87.8 c -11.9,0 -18.8,5.4 -22.2,9 -0.4,-3.2 -2.5,-7.3 -10.7,-7.3 h -17.8 v 18.6 h 7.3 c 1.2,0 1.6,0.4 1.6,1.6 v 85.1 H 226 V 163 160.6 c 3.3,3 9.7,7.2 19.5,7.2 20.7,0 35.2,-16.4 35.2,-40 0,-23.9 -13.8,-40 -34.3,-40 m -4.3,61.5 c -11.4,0 -16.6,-10.9 -16.6,-21.1 0,-16 8.7,-21.7 16.9,-21.7 10,0 16.8,8.6 16.8,21.5 0,14.8 -8.6,21.3 -17.1,21.3" clip-path="url(#SVGID_2_)" id="path2755" style="fill:#0e0e10;fill-opacity:1"></path><path class="st0" d="m 320.6,87.8 c -22.9,0 -38.8,16.5 -38.8,40 0,23.2 17.2,40 41,40 18.7,0 30.1,-11.1 30.6,-11.5 l 0.9,-0.8 -9.2,-15.3 -1.4,1.3 c -0.1,0.1 -8.5,7.8 -19.6,7.8 -10.6,0 -18.4,-6.5 -20.3,-16.7 h 50.3 l 0.1,-1.4 c 0,-0.2 0.5,-4.7 0.5,-6.9 0,-21.8 -13.7,-36.5 -34.1,-36.5 m -16,29 c 2.3,-7.5 8.1,-11.8 16,-11.8 6.4,0 11.3,4.9 12.2,11.8 z" clip-path="url(#SVGID_2_)" id="path2757" style="fill:#0e0e10;fill-opacity:1"></path><path class="st0" d="M 431.9,146 V 72.1 c 0,-7.6 -3.7,-11.3 -11.3,-11.3 h -19 v 18.6 h 7.3 c 1.2,0 1.6,0.4 1.6,1.6 v 13.4 c -3.1,-2.8 -9.2,-6.5 -19.8,-6.5 -20.6,0 -35,16.5 -35,40 0,23.9 13.8,40 34.2,40 11.7,0 18.5,-5.4 21.8,-9.2 0.4,3.3 2.6,7.5 10.5,7.5 h 18.4 v -18.5 h -7.1 c -1.2,-0.1 -1.6,-0.6 -1.6,-1.7 m -37.9,3.3 c -10.1,0 -16.6,-8.4 -16.6,-21.5 0,-12.7 6.8,-21.2 16.9,-21.2 11.5,0 16.6,10.6 16.6,21.1 0,16 -8.7,21.6 -16.9,21.6" clip-path="url(#SVGID_2_)" id="path2759" style="fill:#0e0e10;fill-opacity:1"></path><path class="st0" d="m 487.9,88.5 c -8.8,0 -17,5.1 -21.8,13.2 V 100 c 0,-6.9 -3.8,-10.5 -11.3,-10.5 h -18.2 v 18.6 h 7.3 c 1.2,0 1.6,0.4 1.6,1.6 V 166 h 21.2 v -30.6 c 0,-4 0.5,-7.9 1.5,-11.5 3.2,-10.6 11.7,-14.3 18.5,-14.3 2.4,0 4.2,0.3 4.2,0.3 l 1.8,0.3 V 89.1 l -1.3,-0.2 c 0,-0.1 -1.8,-0.4 -3.5,-0.4" clip-path="url(#SVGID_2_)" id="path2761" style="fill:#0e0e10;fill-opacity:1"></path><path class="st0" d="m 522.9,146 v -45.1 c 0,-7.6 -3.7,-11.3 -11.2,-11.3 h -17.2 v 18.6 h 5.5 c 1.2,0 1.6,0.4 1.6,1.6 v 44.9 c 0,7.7 3.6,11.3 11.2,11.3 h 19 v -18.5 h -7.3 c -1.1,0.1 -1.6,-0.4 -1.6,-1.5" clip-path="url(#SVGID_2_)" id="path2763" style="fill:#0e0e10;fill-opacity:1"></path><path class="st0" d="m 603,89.6 h -11.3 c -6.6,0 -10.2,2.3 -12.3,7.9 l -13.8,38.6 c -0.5,1.4 -0.9,3 -1.3,4.6 -0.4,-1.5 -0.9,-3.2 -1.4,-4.6 L 549.1,97.5 c -2.1,-5.7 -5.5,-7.9 -12.3,-7.9 h -12 v 18.6 h 3.1 c 1.7,0 2.2,0.6 2.6,1.6 l 21.4,56.3 h 23.9 l 21.4,-56.3 c 0.4,-1 0.9,-1.6 2.6,-1.6 h 3.3 V 89.6 Z" clip-path="url(#SVGID_2_)" id="path2765" style="fill:#0e0e10;fill-opacity:1"></path><path class="st0" d="m 639.6,87.8 c -22.9,0 -38.8,16.5 -38.8,40 0,23.2 17.2,40 41,40 18.7,0 30.1,-11.1 30.6,-11.5 l 0.9,-0.8 -9.2,-15.3 -1.4,1.3 c -0.1,0.1 -8.5,7.8 -19.5,7.8 -10.6,0 -18.4,-6.5 -20.3,-16.7 h 50.3 l 0.1,-1.4 c 0,-0.2 0.4,-4.7 0.4,-6.9 0,-21.8 -13.7,-36.5 -34.1,-36.5 m -16,29 c 2.3,-7.5 8.1,-11.8 16,-11.8 6.4,0 11.3,4.9 12.2,11.8 z" clip-path="url(#SVGID_2_)" id="path2767" style="fill:#0e0e10;fill-opacity:1"></path><rect class="st0" x="170.60001" y="60.700001" width="18.9" height="19.9" clip-path="url(#SVGID_2_)" id="rect2769" style="fill:#0e0e10;fill-opacity:1"></rect><rect class="st0" x="502.60001" y="60.700001" width="18.9" height="19.9" clip-path="url(#SVGID_2_)" id="rect2771" style="fill:#0e0e10;fill-opacity:1"></rect><polygon class="st0" points="676.1,97.2 678.2,97.2 678.2,89.6 681,89.6 681,87.8 673.3,87.8 673.3,89.6 676.1,89.6 " clip-path="url(#SVGID_2_)" id="polygon2773" style="fill:#0e0e10;fill-opacity:1"></polygon><polygon class="st0" points="685,87.8 682.1,87.8 682.1,97.2 684,97.2 684,90.6 684.1,90.6 686.4,97.2 688,97.2 690.3,90.6 690.3,97.2 692.2,97.2 692.2,87.8 689.3,87.8 687.2,94.3 " clip-path="url(#SVGID_2_)" id="polygon2775" style="fill:#0e0e10;fill-opacity:1"></polygon></g></g></g></svg>