<svg xmlns:inkscape="http://www.inkscape.org/namespaces/inkscape" xmlns:sodipodi="http://sodipodi.sourceforge.net/DTD/sodipodi-0.dtd" xmlns="http://www.w3.org/2000/svg" xmlns:svg="http://www.w3.org/2000/svg" id="Layer_1" data-name="Layer 1" viewBox="0 0 750 151.16" sodipodi:docname="woocommerce-logo-black.svg" width="750" height="151.16" inkscape:version="1.1.1 (c3084ef, 2021-09-22)"><defs id="defs826"><style id="style824">.cls-1,.cls-2{fill:#231f20;}.cls-1{fill-rule:evenodd;}</style></defs><g id="g948" transform="translate(-15,-14.44)"><g id="g941"><path class="cls-1" d="M 165.66,57.22 Q 160,56 154.84,63.61 A 34.6,34.6 0 0 0 149.36,76 37.16,37.16 0 0 0 148.6,83.62 26.82,26.82 0 0 0 150.43,93 q 2.28,5.94 6.09,6.7 3.81,0.76 8.38,-3.35 5.79,-5.18 7.92,-15.39 a 37.09,37.09 0 0 0 0.76,-7.62 26.81,26.81 0 0 0 -1.83,-9.44 q -2.28,-5.9 -6.09,-6.68 z" id="path828" style="fill:#0e0e10;fill-opacity:1"></path><path class="cls-1" d="M 230.74,57.22 Q 225.1,56 219.92,63.61 a 34.26,34.26 0 0 0 -5.48,12.39 37.16,37.16 0 0 0 -0.76,7.62 26.82,26.82 0 0 0 1.83,9.38 q 2.28,5.94 6.09,6.7 3.81,0.76 8.4,-3.33 5.77,-5.17 7.9,-15.37 a 37.09,37.09 0 0 0 0.76,-7.62 26.79,26.79 0 0 0 -1.82,-9.44 q -2.29,-5.94 -6.1,-6.72 z" id="path830" style="fill:#0e0e10;fill-opacity:1"></path><path class="cls-1" d="M 245.44,14.44 H 38.66 A 23.67,23.67 0 0 0 15,38.11 V 117 a 23.66,23.66 0 0 0 23.66,23.65 h 98 l 44.8,24.95 -10.15,-24.95 h 74.16 A 23.65,23.65 0 0 0 269.1,117 V 38.11 A 23.66,23.66 0 0 0 245.44,14.44 Z M 119.13,118.32 a 12.63,12.63 0 0 1 -1.21,6.8 6.53,6.53 0 0 1 -5.53,3.75 c -2.74,0.2 -5.47,-1.09 -8.22,-3.85 q -14.48,-14.85 -23,-44.19 -10,20 -15,29.92 -9.15,17.6 -15.68,18.05 -4.24,0.3 -7.22,-7.12 -8,-20.37 -17.16,-78.82 a 8.88,8.88 0 0 1 1.64,-7 8.56,8.56 0 0 1 6.5,-3.21 q 7.91,-0.55 9.08,7.46 4.88,32.49 10.45,55.16 L 76.58,52 q 3.09,-5.86 7.81,-6.2 6.84,-0.48 8.55,8.71 A 193.68,193.68 0 0 0 102.77,90 q 4.1,-39.54 13.69,-57.17 a 8,8 0 0 1 6.86,-4.6 9.13,9.13 0 0 1 6.55,2.05 8,8 0 0 1 3.17,6 8.8,8.8 0 0 1 -1,5 q -6.08,11.28 -10,37.51 -3.92,25.21 -2.91,39.53 z M 182.88,102 q -9.3,15.54 -24.38,15.53 a 26.93,26.93 0 0 1 -5.63,-0.61 24,24 0 0 1 -16.61,-12 q -5,-8.54 -5,-20.57 a 55.1,55.1 0 0 1 8.08,-29.25 q 9.44,-15.54 24.37,-15.53 a 27.76,27.76 0 0 1 5.64,0.6 24.1,24.1 0 0 1 16.6,12 q 5,8.39 5,20.41 A 56,56 0 0 1 182.88,102 Z m 65.12,0 q -9.28,15.54 -24.37,15.53 a 26.93,26.93 0 0 1 -5.63,-0.61 24.05,24.05 0 0 1 -16.61,-12 q -5,-8.54 -5,-20.57 a 55.18,55.18 0 0 1 8.07,-29.25 q 9.45,-15.54 24.38,-15.53 a 27.76,27.76 0 0 1 5.64,0.6 24.1,24.1 0 0 1 16.6,12 q 5,8.39 5,20.41 A 55.88,55.88 0 0 1 248,102 Z" id="path832" style="fill:#0e0e10;fill-opacity:1"></path><path class="cls-2" d="M 295.37,51.3 Q 285,61.61 285,77.43 q 0,17.07 10.28,27.57 10.28,10.5 26.89,10.46 A 42.13,42.13 0 0 0 333,113.77 V 97 a 34.34,34.34 0 0 1 -9.46,1.59 q -8.25,0 -13.2,-5.54 -4.95,-5.54 -4.94,-15.05 0,-8.83 4.91,-14.56 a 15.63,15.63 0 0 1 12.36,-5.72 38.19,38.19 0 0 1 10.33,1.5 V 42.37 A 44.41,44.41 0 0 0 321.66,41 q -15.89,0 -26.29,10.3 z M 367.45,41 q -14.37,0 -22.45,9.56 -8.08,9.56 -8,26.66 0,18.54 8,28.36 8,9.82 23.26,9.83 14.75,0 22.72,-9.83 Q 398.95,95.75 399,78 399,60.21 390.9,50.62 382.8,41.03 367.45,41 Z m 8.23,54 a 9.24,9.24 0 0 1 -8.23,4.4 8.34,8.34 0 0 1 -7.6,-4.4 q -2.61,-4.38 -2.61,-17.53 0,-20.47 10.33,-20.47 11,0 11,20.71 -0.03,12.86 -2.89,17.29 z m 74.69,-52 -3.72,15.88 q -1.45,6.1 -2.71,12.5 l -2.08,11 q -3,-16.47 -8.13,-39.35 h -24.15 l -9.07,70.7 h 18.09 l 4.92,-48.72 12.35,48.72 H 448.8 L 460.58,65 l 5.11,48.62 H 484.6 L 475,43 Z m 86.52,0 -3.72,15.88 q -1.45,6.1 -2.71,12.5 l -2.08,11 q -3,-16.47 -8.14,-39.35 H 496.1 l -9.1,70.63 h 18.09 l 4.91,-48.72 12.36,48.72 h 12.92 L 547.1,65 l 5.11,48.62 h 18.91 L 561.54,43 Z m 58.71,42.7 h 17 V 71 h -17 V 58 h 19.54 V 43 H 576.5 v 70.7 h 38.77 V 98.57 H 595.6 Z M 669.07,74.55 A 19.27,19.27 0 0 0 664.21,48.78 Q 656.4,43 642.91,43 h -22.26 v 70.7 h 19.11 V 81.46 h 0.31 l 15.44,32.2 h 20.18 L 660.43,81.78 a 18.42,18.42 0 0 0 8.64,-7.23 z M 639.76,73.41 V 56.62 q 6.79,0.16 9.73,2.28 2.94,2.12 2.94,7 0,7.3 -12.67,7.51 z M 683.34,51.3 q -10.4,10.31 -10.4,26.13 0,17.07 10.3,27.52 10.3,10.45 26.89,10.46 A 42.14,42.14 0 0 0 721,113.77 V 97 a 34.34,34.34 0 0 1 -9.46,1.59 q -8.26,0 -13.21,-5.54 -4.95,-5.54 -4.97,-15.05 0,-8.83 4.92,-14.56 a 15.63,15.63 0 0 1 12.36,-5.72 38.24,38.24 0 0 1 10.36,1.5 V 42.37 A 44.41,44.41 0 0 0 709.63,41 q -15.89,0 -26.29,10.3 z m 62,47.27 V 85.7 h 17 V 71 h -17 V 58 h 19.54 V 43 h -38.65 v 70.7 H 765 V 98.57 Z" id="path834" style="fill:#0e0e10;fill-opacity:1"></path></g></g></svg>